Apfel Grotezk-Satt.ufo
<glyph name="exclam" format="2">
  <advance width="264"/>
  <unicode hex="0021"/>
  <outline>
    <contour>
      <point x="64" y="256" type="line"/>
      <point x="200" y="256" type="line"/>
      <point x="232" y="680" type="line"/>
      <point x="32" y="680" type="line"/>
    </contour>
    <component base="period" xOffset="-4"/>
  </outline>
</glyph>
<glyph name="numbersign" format="2">
  <advance width="644"/>
  <unicode hex="0023"/>
  <outline>
    <contour>
      <point x="88" y="-32" type="line"/>
      <point x="288" y="-32" type="line"/>
      <point x="288" y="618" type="line"/>
      <point x="88" y="618" type="line"/>
    </contour>
    <contour>
      <point x="356" y="-32" type="line"/>
      <point x="556" y="-32" type="line"/>
      <point x="556" y="618" type="line"/>
      <point x="356" y="618" type="line"/>
    </contour>
    <contour>
      <point x="32" y="95" type="line"/>
      <point x="612" y="95" type="line"/>
      <point x="612" y="249" type="line"/>
      <point x="32" y="249" type="line"/>
    </contour>
    <contour>
      <point x="32" y="348" type="line"/>
      <point x="612" y="348" type="line"/>
      <point x="612" y="500" type="line"/>
      <point x="32" y="500" type="line"/>
    </contour>
  </outline>
</glyph>
<glyph name="dollar" format="2">
  <advance width="596"/>
  <unicode hex="0024"/>
  <outline>
    <contour>
      <point x="216" y="590" type="line"/>
      <point x="376" y="590" type="line"/>
      <point x="376" y="750" type="line"/>
      <point x="216" y="750" type="line"/>
    </contour>
    <contour>
      <point x="376" y="67" type="line"/>
      <point x="216" y="67" type="line"/>
      <point x="216" y="-108" type="line"/>
      <point x="376" y="-108" type="line"/>
    </contour>
    <component base="S"/>
  </outline>
</glyph>
<glyph name="ampersand" format="2">
  <advance width="674"/>
  <unicode hex="0026"/>
  <outline>
    <contour>
      <point x="310" y="-12" type="curve" smooth="yes"/>
      <point x="474" y="-12"/>
      <point x="588" y="68"/>
      <point x="588" y="184" type="curve" smooth="yes"/>
      <point x="588" y="308" type="line"/>
      <point x="648" y="308" type="line"/>
      <point x="648" y="384" type="line"/>
      <point x="588" y="384" type="line"/>
      <point x="588" y="496" type="line"/>
      <point x="388" y="448" type="line"/>
      <point x="388" y="448" type="line"/>
      <point x="388" y="412"/>
      <point x="365" y="386"/>
      <point x="334" y="386" type="curve" smooth="yes"/>
      <point x="310" y="386" type="line" smooth="yes"/>
      <point x="275" y="386"/>
      <point x="252" y="407"/>
      <point x="252" y="440" type="curve" smooth="yes"/>
      <point x="252" y="473"/>
      <point x="275" y="494"/>
      <point x="310" y="494" type="curve" smooth="yes"/>
      <point x="326" y="494"/>
      <point x="343" y="489"/>
      <point x="352" y="480" type="curve"/>
      <point x="424" y="644" type="line"/>
      <point x="392" y="656"/>
      <point x="354" y="662"/>
      <point x="312" y="662" type="curve" smooth="yes"/>
      <point x="167" y="662"/>
      <point x="64" y="591"/>
      <point x="64" y="484" type="curve" smooth="yes"/>
      <point x="64" y="420"/>
      <point x="98" y="368"/>
      <point x="158" y="344" type="curve"/>
      <point x="78" y="320"/>
      <point x="32" y="260"/>
      <point x="32" y="184" type="curve" smooth="yes"/>
      <point x="32" y="68"/>
      <point x="146" y="-12"/>
    </contour>
    <contour>
      <point x="312" y="160" type="curve" smooth="yes"/>
      <point x="271" y="160"/>
      <point x="244" y="185"/>
      <point x="244" y="225" type="curve" smooth="yes"/>
      <point x="244" y="265"/>
      <point x="270" y="290"/>
      <point x="310" y="290" type="curve" smooth="yes"/>
      <point x="380" y="290" type="line"/>
      <point x="380" y="225" type="line" smooth="yes"/>
      <point x="380" y="185"/>
      <point x="353" y="160"/>
    </contour>
  </outline>
</glyph>
<glyph name="parenleft" format="2">
  <advance width="352"/>
  <unicode hex="0028"/>
  <outline>
    <contour>
      <point x="132" y="-224" type="curve"/>
      <point x="336" y="-148" type="line"/>
      <point x="258" y="-24"/>
      <point x="224" y="90"/>
      <point x="224" y="244" type="curve" smooth="yes"/>
      <point x="224" y="400"/>
      <point x="256" y="520"/>
      <point x="332" y="636" type="curve"/>
      <point x="128" y="712" type="line"/>
      <point x="60" y="576"/>
      <point x="32" y="438"/>
      <point x="32" y="246" type="curve" smooth="yes"/>
      <point x="32" y="58"/>
      <point x="62" y="-80"/>
    </contour>
  </outline>
</glyph>
<glyph name="asterisk" format="2">
  <advance width="388"/>
  <unicode hex="002A"/>
  <outline>
    <contour>
      <point x="120" y="368" type="line"/>
      <point x="268" y="368" type="line"/>
      <point x="217" y="478" type="line"/>
      <point x="220" y="480" type="line"/>
      <point x="292" y="382" type="line"/>
      <point x="366" y="510" type="line"/>
      <point x="245" y="522" type="line"/>
      <point x="245" y="526" type="line"/>
      <point x="366" y="538" type="line"/>
      <point x="292" y="666" type="line"/>
      <point x="220" y="568" type="line"/>
      <point x="217" y="570" type="line"/>
      <point x="268" y="680" type="line"/>
      <point x="120" y="680" type="line"/>
      <point x="171" y="570" type="line"/>
      <point x="168" y="568" type="line"/>
      <point x="96" y="666" type="line"/>
      <point x="22" y="538" type="line"/>
      <point x="143" y="526" type="line"/>
      <point x="143" y="522" type="line"/>
      <point x="22" y="510" type="line"/>
      <point x="96" y="382" type="line"/>
      <point x="168" y="480" type="line"/>
      <point x="171" y="478" type="line"/>
    </contour>
  </outline>
</glyph>
<glyph name="plus" format="2">
  <advance width="600"/>
  <unicode hex="002B"/>
  <outline>
    <contour>
      <point x="208" y="90" type="line"/>
      <point x="392" y="90" type="line"/>
      <point x="392" y="546" type="line"/>
      <point x="208" y="546" type="line"/>
    </contour>
    <component base="minus"/>
  </outline>
</glyph>
<glyph name="comma" format="2">
  <advance width="292"/>
  <unicode hex="002C"/>
  <outline>
    <contour>
      <point x="152" y="-132"/>
      <point x="252" y="-66"/>
      <point x="252" y="55" type="curve" smooth="yes"/>
      <point x="252" y="135"/>
      <point x="204" y="192"/>
      <point x="136" y="192" type="curve" smooth="yes"/>
      <point x="77" y="192"/>
      <point x="36" y="152"/>
      <point x="36" y="96" type="curve" smooth="yes"/>
      <point x="36" y="44"/>
      <point x="76" y="4"/>
      <point x="132" y="0" type="curve"/>
      <point x="115" y="-29"/>
      <point x="73" y="-31"/>
      <point x="40" y="-25" type="curve"/>
      <point x="32" y="-112" type="line"/>
    </contour>
  </outline>
</glyph>
<glyph name="hyphen" format="2">
  <advance width="412"/>
  <unicode hex="002D"/>
  <outline>
    <contour>
      <point x="16" y="184" type="line"/>
      <point x="396" y="184" type="line"/>
      <point x="396" y="328" type="line"/>
      <point x="16" y="328" type="line"/>
    </contour>
  </outline>
</glyph>
<glyph name="period" format="2">
  <advance width="280"/>
  <unicode hex="002E"/>
  <outline>
    <contour>
      <point x="136" y="-8" type="curve" smooth="yes"/>
      <point x="198" y="-8"/>
      <point x="240" y="32"/>
      <point x="240" y="92" type="curve" smooth="yes"/>
      <point x="240" y="152"/>
      <point x="198" y="192"/>
      <point x="136" y="192" type="curve" smooth="yes"/>
      <point x="74" y="192"/>
      <point x="32" y="152"/>
      <point x="32" y="92" type="curve" smooth="yes"/>
      <point x="32" y="32"/>
      <point x="74" y="-8"/>
    </contour>
  </outline>
</glyph>
<glyph name="slash" format="2">
  <advance width="380"/>
  <unicode hex="002F"/>
  <outline>
    <contour>
      <point x="188" y="-216" type="line"/>
      <point x="384" y="648" type="line"/>
      <point x="184" y="696" type="line"/>
      <point x="-16" y="-164" type="line"/>
    </contour>
  </outline>
</glyph>
<glyph name="zero" format="2">
  <advance width="624"/>
  <unicode hex="0030"/>
  <outline>
    <contour>
      <point x="312" y="-12" type="curve" smooth="yes"/>
      <point x="480" y="-12"/>
      <point x="600" y="129"/>
      <point x="600" y="325" type="curve" smooth="yes"/>
      <point x="600" y="521"/>
      <point x="480" y="662"/>
      <point x="312" y="662" type="curve" smooth="yes"/>
      <point x="144" y="662"/>
      <point x="24" y="521"/>
      <point x="24" y="325" type="curve" smooth="yes"/>
      <point x="24" y="129"/>
      <point x="144" y="-12"/>
    </contour>
    <contour>
      <point x="312" y="182" type="curve" smooth="yes"/>
      <point x="261" y="182"/>
      <point x="228" y="239"/>
      <point x="228" y="326" type="curve" smooth="yes"/>
      <point x="228" y="413"/>
      <point x="261" y="470"/>
      <point x="312" y="470" type="curve" smooth="yes"/>
      <point x="363" y="470"/>
      <point x="396" y="413"/>
      <point x="396" y="326" type="curve" smooth="yes"/>
      <point x="396" y="239"/>
      <point x="363" y="182"/>
    </contour>
  </outline>
</glyph>
<glyph name="one" format="2">
  <advance width="390"/>
  <unicode hex="0031"/>
  <outline>
    <contour>
      <point x="136" y="0" type="line"/>
      <point x="348" y="0" type="line"/>
      <point x="348" y="650" type="line"/>
      <point x="142" y="650" type="line"/>
      <point x="142" y="604" type="line" smooth="yes"/>
      <point x="142" y="553"/>
      <point x="107" y="520"/>
      <point x="54" y="520" type="curve" smooth="yes"/>
      <point x="20" y="520" type="line"/>
      <point x="20" y="336" type="line"/>
      <point x="136" y="336" type="line"/>
    </contour>
  </outline>
</glyph>
<glyph name="two" format="2">
  <advance width="536"/>
  <unicode hex="0032"/>
  <outline>
    <contour>
      <point x="20" y="0" type="line"/>
      <point x="498" y="0" type="line"/>
      <point x="498" y="192" type="line"/>
      <point x="268" y="192" type="line"/>
      <point x="286" y="241"/>
      <point x="354" y="264"/>
      <point x="418" y="308" type="curve" smooth="yes"/>
      <point x="466" y="341"/>
      <point x="508" y="392"/>
      <point x="508" y="464" type="curve" smooth="yes"/>
      <point x="508" y="580"/>
      <point x="409" y="662"/>
      <point x="270" y="662" type="curve" smooth="yes"/>
      <point x="130" y="662"/>
      <point x="25" y="567"/>
      <point x="16" y="432" type="curve"/>
      <point x="216" y="408" type="line"/>
      <point x="218" y="449"/>
      <point x="240" y="476"/>
      <point x="272" y="476" type="curve" smooth="yes"/>
      <point x="299" y="476"/>
      <point x="316" y="457"/>
      <point x="316" y="428" type="curve" smooth="yes"/>
      <point x="316" y="400"/>
      <point x="299" y="378"/>
      <point x="260" y="356" type="curve" smooth="yes"/>
      <point x="92" y="261"/>
      <point x="20" y="188"/>
      <point x="20" y="48" type="curve" smooth="yes"/>
    </contour>
  </outline>
</glyph>
<glyph name="three" format="2">
  <advance width="588"/>
  <unicode hex="0033"/>
  <outline>
    <contour>
      <point x="300" y="-12" type="curve" smooth="yes"/>
      <point x="449" y="-12"/>
      <point x="560" y="75"/>
      <point x="560" y="196" type="curve" smooth="yes"/>
      <point x="560" y="285"/>
      <point x="500" y="364"/>
      <point x="416" y="384" type="curve"/>
      <point x="416" y="368" type="line"/>
      <point x="532" y="446" type="line"/>
      <point x="532" y="650" type="line"/>
      <point x="64" y="650" type="line"/>
      <point x="64" y="468" type="line"/>
      <point x="348" y="468" type="line"/>
      <point x="208" y="376" type="line"/>
      <point x="260" y="296" type="line"/>
      <point x="296" y="320"/>
      <point x="348" y="301"/>
      <point x="348" y="240" type="curve" smooth="yes"/>
      <point x="348" y="200"/>
      <point x="325" y="172"/>
      <point x="292" y="172" type="curve" smooth="yes"/>
      <point x="259" y="172"/>
      <point x="236" y="199"/>
      <point x="236" y="236" type="curve"/>
      <point x="28" y="216" type="line"/>
      <point x="28" y="84"/>
      <point x="144" y="-12"/>
    </contour>
  </outline>
</glyph>
<glyph name="four" format="2">
  <advance width="592"/>
  <unicode hex="0034"/>
  <outline>
    <contour>
      <point x="28" y="108" type="line"/>
      <point x="584" y="108" type="line"/>
      <point x="584" y="288" type="line"/>
      <point x="184" y="288" type="line"/>
      <point x="293" y="350"/>
      <point x="340" y="459"/>
      <point x="340" y="650" type="curve" smooth="yes"/>
      <point x="340" y="650" type="line"/>
      <point x="128" y="650" type="line"/>
      <point x="128" y="630" type="line" smooth="yes"/>
      <point x="128" y="476"/>
      <point x="98" y="382"/>
      <point x="28" y="316" type="curve"/>
    </contour>
    <contour>
      <point x="328" y="0" type="line"/>
      <point x="520" y="0" type="line"/>
      <point x="520" y="468" type="line"/>
      <point x="328" y="420" type="line"/>
    </contour>
  </outline>
</glyph>
<glyph name="five" format="2">
  <advance width="568"/>
  <unicode hex="0035"/>
  <note>
alto
</note>
  <outline>
    <contour>
      <point x="288" y="-12" type="curve" smooth="yes"/>
      <point x="440" y="-12"/>
      <point x="548" y="81"/>
      <point x="548" y="212" type="curve" smooth="yes"/>
      <point x="548" y="333"/>
      <point x="455" y="420"/>
      <point x="326" y="420" type="curve" smooth="yes"/>
      <point x="264" y="420"/>
      <point x="206" y="398"/>
      <point x="168" y="360" type="curve"/>
      <point x="180" y="352" type="line"/>
      <point x="186" y="468" type="line"/>
      <point x="510" y="468" type="line"/>
      <point x="510" y="650" type="line"/>
      <point x="90" y="650" type="line"/>
      <point x="58" y="312" type="line"/>
      <point x="224" y="268" type="line"/>
      <point x="234" y="296"/>
      <point x="257" y="312"/>
      <point x="282" y="312" type="curve" smooth="yes"/>
      <point x="316" y="312"/>
      <point x="340" y="283"/>
      <point x="340" y="242" type="curve" smooth="yes"/>
      <point x="340" y="201"/>
      <point x="317" y="172"/>
      <point x="284" y="172" type="curve" smooth="yes"/>
      <point x="254" y="172"/>
      <point x="232" y="196"/>
      <point x="232" y="232" type="curve"/>
      <point x="24" y="216" type="line"/>
      <point x="24" y="83"/>
      <point x="134" y="-12"/>
    </contour>
  </outline>
</glyph>
<glyph name="six" format="2">
  <advance width="588"/>
  <unicode hex="0036"/>
  <outline>
    <contour>
      <point x="316" y="-12" type="curve" smooth="yes"/>
      <point x="460" y="-12"/>
      <point x="564" y="78"/>
      <point x="564" y="204" type="curve" smooth="yes"/>
      <point x="564" y="324"/>
      <point x="468" y="408"/>
      <point x="332" y="408" type="curve" smooth="yes"/>
      <point x="283" y="408"/>
      <point x="239" y="397"/>
      <point x="204" y="378" type="curve"/>
      <point x="220" y="368" type="line"/>
      <point x="220" y="441"/>
      <point x="251" y="488"/>
      <point x="300" y="488" type="curve" smooth="yes"/>
      <point x="333" y="488"/>
      <point x="356" y="468"/>
      <point x="360" y="436" type="curve"/>
      <point x="556" y="472" type="line"/>
      <point x="548" y="584"/>
      <point x="452" y="662"/>
      <point x="324" y="662" type="curve" smooth="yes"/>
      <point x="151" y="662"/>
      <point x="28" y="519"/>
      <point x="28" y="316" type="curve" smooth="yes"/>
      <point x="28" y="116"/>
      <point x="144" y="-12"/>
    </contour>
    <contour>
      <point x="302" y="172" type="curve" smooth="yes"/>
      <point x="269" y="172"/>
      <point x="248" y="199"/>
      <point x="248" y="240" type="curve" smooth="yes"/>
      <point x="248" y="281"/>
      <point x="269" y="308"/>
      <point x="302" y="308" type="curve" smooth="yes"/>
      <point x="335" y="308"/>
      <point x="356" y="281"/>
      <point x="356" y="240" type="curve" smooth="yes"/>
      <point x="356" y="199"/>
      <point x="335" y="172"/>
    </contour>
  </outline>
</glyph>
<glyph name="seven" format="2">
  <advance width="508"/>
  <unicode hex="0037"/>
  <outline>
    <contour>
      <point x="100" y="0" type="curve"/>
      <point x="340" y="0" type="line"/>
      <point x="340" y="20" type="line" smooth="yes"/>
      <point x="340" y="224"/>
      <point x="388" y="358"/>
      <point x="504" y="454" type="curve"/>
      <point x="504" y="650" type="line"/>
      <point x="12" y="650" type="line"/>
      <point x="12" y="466" type="line"/>
      <point x="368" y="466" type="line"/>
      <point x="180" y="382"/>
      <point x="100" y="240"/>
    </contour>
  </outline>
</glyph>
<glyph name="eight" format="2">
  <advance width="620"/>
  <unicode hex="0038"/>
  <outline>
    <contour>
      <point x="310" y="-12" type="curve" smooth="yes"/>
      <point x="474" y="-12"/>
      <point x="588" y="68"/>
      <point x="588" y="184" type="curve" smooth="yes"/>
      <point x="588" y="260"/>
      <point x="542" y="320"/>
      <point x="462" y="344" type="curve"/>
      <point x="522" y="368"/>
      <point x="556" y="420"/>
      <point x="556" y="480" type="curve" smooth="yes"/>
      <point x="556" y="587"/>
      <point x="454" y="662"/>
      <point x="310" y="662" type="curve" smooth="yes"/>
      <point x="166" y="662"/>
      <point x="64" y="587"/>
      <point x="64" y="480" type="curve" smooth="yes"/>
      <point x="64" y="420"/>
      <point x="98" y="368"/>
      <point x="158" y="344" type="curve"/>
      <point x="78" y="320"/>
      <point x="32" y="260"/>
      <point x="32" y="184" type="curve" smooth="yes"/>
      <point x="32" y="68"/>
      <point x="146" y="-12"/>
    </contour>
    <contour>
      <point x="310" y="160" type="curve" smooth="yes"/>
      <point x="270" y="160"/>
      <point x="244" y="185"/>
      <point x="244" y="225" type="curve" smooth="yes"/>
      <point x="244" y="265"/>
      <point x="270" y="290"/>
      <point x="310" y="290" type="curve" smooth="yes"/>
      <point x="350" y="290"/>
      <point x="376" y="265"/>
      <point x="376" y="225" type="curve" smooth="yes"/>
      <point x="376" y="185"/>
      <point x="350" y="160"/>
    </contour>
    <contour>
      <point x="310" y="386" type="curve" smooth="yes"/>
      <point x="275" y="386"/>
      <point x="252" y="407"/>
      <point x="252" y="440" type="curve" smooth="yes"/>
      <point x="252" y="473"/>
      <point x="275" y="494"/>
      <point x="310" y="494" type="curve" smooth="yes"/>
      <point x="345" y="494"/>
      <point x="368" y="473"/>
      <point x="368" y="440" type="curve" smooth="yes"/>
      <point x="368" y="407"/>
      <point x="345" y="386"/>
    </contour>
  </outline>
</glyph>
<glyph name="nine" format="2">
  <advance width="580"/>
  <unicode hex="0039"/>
  <outline>
    <contour>
      <point x="268" y="-12" type="curve" smooth="yes"/>
      <point x="436" y="-12"/>
      <point x="552" y="128"/>
      <point x="552" y="332" type="curve" smooth="yes"/>
      <point x="552" y="532"/>
      <point x="444" y="662"/>
      <point x="272" y="662" type="curve" smooth="yes"/>
      <point x="131" y="662"/>
      <point x="32" y="573"/>
      <point x="32" y="448" type="curve" smooth="yes"/>
      <point x="32" y="329"/>
      <point x="126" y="244"/>
      <point x="260" y="244" type="curve" smooth="yes"/>
      <point x="306" y="244"/>
      <point x="348" y="254"/>
      <point x="381" y="273" type="curve"/>
      <point x="360" y="282" type="line"/>
      <point x="360" y="209"/>
      <point x="333" y="168"/>
      <point x="284" y="168" type="curve" smooth="yes"/>
      <point x="251" y="168"/>
      <point x="228" y="188"/>
      <point x="224" y="220" type="curve"/>
      <point x="28" y="178" type="line"/>
      <point x="40" y="67"/>
      <point x="139" y="-12"/>
    </contour>
    <contour>
      <point x="284" y="348" type="curve" smooth="yes"/>
      <point x="249" y="348"/>
      <point x="224" y="375"/>
      <point x="224" y="416" type="curve" smooth="yes"/>
      <point x="224" y="457"/>
      <point x="249" y="484"/>
      <point x="284" y="484" type="curve" smooth="yes"/>
      <point x="319" y="484"/>
      <point x="344" y="457"/>
      <point x="344" y="416" type="curve" smooth="yes"/>
      <point x="344" y="375"/>
      <point x="319" y="348"/>
    </contour>
  </outline>
</glyph>
<glyph name="equal" format="2">
  <advance width="600"/>
  <unicode hex="003D"/>
  <outline>
    <contour>
      <point x="92" y="140" type="line"/>
      <point x="508" y="140" type="line"/>
      <point x="508" y="300" type="line"/>
      <point x="92" y="300" type="line"/>
    </contour>
    <contour>
      <point x="92" y="341" type="line"/>
      <point x="508" y="341" type="line"/>
      <point x="508" y="500" type="line"/>
      <point x="92" y="500" type="line"/>
    </contour>
  </outline>
</glyph>
<glyph name="greater" format="2">
  <advance width="600"/>
  <unicode hex="003E"/>
  <outline>
    <contour>
      <point x="156" y="74" type="line"/>
      <point x="520" y="228" type="line"/>
      <point x="520" y="408" type="line"/>
      <point x="158" y="572" type="line"/>
      <point x="94" y="376" type="line"/>
      <point x="344" y="324" type="line"/>
      <point x="92" y="272" type="line"/>
    </contour>
  </outline>
</glyph>
<glyph name="question" format="2">
  <advance width="512"/>
  <unicode hex="003F"/>
  <outline>
    <contour>
      <point x="162" y="240" type="line"/>
      <point x="302" y="240" type="line"/>
      <point x="322" y="324"/>
      <point x="498" y="336"/>
      <point x="498" y="492" type="curve" smooth="yes"/>
      <point x="498" y="608"/>
      <point x="400" y="692"/>
      <point x="262" y="692" type="curve" smooth="yes"/>
      <point x="116" y="692"/>
      <point x="10" y="597"/>
      <point x="6" y="462" type="curve"/>
      <point x="210" y="438" type="line"/>
      <point x="210" y="479"/>
      <point x="230" y="506"/>
      <point x="262" y="506" type="curve" smooth="yes"/>
      <point x="289" y="506"/>
      <point x="306" y="487"/>
      <point x="306" y="458" type="curve" smooth="yes"/>
      <point x="306" y="374"/>
      <point x="162" y="372"/>
      <point x="162" y="244" type="curve"/>
    </contour>
    <component base="period" xOffset="106"/>
  </outline>
</glyph>
<glyph name="at" format="2">
  <advance width="756"/>
  <unicode hex="0040"/>
  <outline>
    <contour>
      <point x="384" y="-56" type="curve" smooth="yes"/>
      <point x="448" y="-56"/>
      <point x="500" y="-44"/>
      <point x="544" y="-20" type="curve"/>
      <point x="496" y="84" type="line"/>
      <point x="461" y="61"/>
      <point x="405" y="56"/>
      <point x="380" y="56" type="curve" smooth="yes"/>
      <point x="236" y="56"/>
      <point x="144" y="149"/>
      <point x="144" y="304" type="curve" smooth="yes"/>
      <point x="144" y="459"/>
      <point x="232" y="556"/>
      <point x="376" y="556" type="curve" smooth="yes"/>
      <point x="522" y="556"/>
      <point x="616" y="453"/>
      <point x="616" y="300" type="curve" smooth="yes"/>
      <point x="616" y="232"/>
      <point x="602" y="192"/>
      <point x="574" y="192" type="curve" smooth="yes"/>
      <point x="558" y="192"/>
      <point x="546" y="204"/>
      <point x="546" y="226" type="curve" smooth="yes"/>
      <point x="546" y="488" type="line"/>
      <point x="456" y="488" type="line"/>
      <point x="428" y="448" type="line"/>
      <point x="468" y="300" type="line"/>
      <point x="436" y="176" type="line"/>
      <point x="452" y="124"/>
      <point x="502" y="90"/>
      <point x="562" y="90" type="curve" smooth="yes"/>
      <point x="662" y="90"/>
      <point x="736" y="184"/>
      <point x="736" y="320" type="curve" smooth="yes"/>
      <point x="736" y="524"/>
      <point x="581" y="666"/>
      <point x="372" y="666" type="curve" smooth="yes"/>
      <point x="168" y="666"/>
      <point x="20" y="513"/>
      <point x="20" y="302" type="curve" smooth="yes"/>
      <point x="20" y="91"/>
      <point x="175" y="-56"/>
    </contour>
    <contour>
      <point x="348" y="100" type="curve" smooth="yes"/>
      <point x="438" y="100"/>
      <point x="504" y="184"/>
      <point x="504" y="300" type="curve" smooth="yes"/>
      <point x="504" y="414"/>
      <point x="438" y="496"/>
      <point x="348" y="496" type="curve" smooth="yes"/>
      <point x="253" y="496"/>
      <point x="184" y="412"/>
      <point x="184" y="296" type="curve" smooth="yes"/>
      <point x="184" y="182"/>
      <point x="253" y="100"/>
    </contour>
    <contour>
      <point x="374" y="244" type="curve" smooth="yes"/>
      <point x="348" y="243"/>
      <point x="332" y="265"/>
      <point x="332" y="300" type="curve" smooth="yes"/>
      <point x="332" y="335"/>
      <point x="348" y="357"/>
      <point x="374" y="356" type="curve" smooth="yes"/>
      <point x="400" y="357"/>
      <point x="416" y="335"/>
      <point x="416" y="300" type="curve" smooth="yes"/>
      <point x="416" y="265"/>
      <point x="400" y="243"/>
    </contour>
  </outline>
</glyph>
<glyph name="A" format="2">
  <advance width="672"/>
  <unicode hex="0041"/>
  <anchor x="540" y="0" name="ogonek"/>
  <anchor x="334" y="650" name="top"/>
  <outline>
    <contour>
      <point x="0" y="0" type="line"/>
      <point x="232" y="0" type="line"/>
      <point x="332" y="468" type="line"/>
      <point x="440" y="0" type="line"/>
      <point x="672" y="0" type="line"/>
      <point x="466" y="650" type="line"/>
      <point x="202" y="650" type="line"/>
    </contour>
    <contour>
      <point x="194" y="132" type="line"/>
      <point x="474" y="132" type="line"/>
      <point x="474" y="232" type="line"/>
      <point x="194" y="232" type="line"/>
    </contour>
  </outline>
</glyph>
<glyph name="B" format="2">
  <advance width="612"/>
  <unicode hex="0042"/>
  <outline>
    <contour>
      <point x="234" y="0" type="line"/>
      <point x="424" y="0" type="line" smooth="yes"/>
      <point x="526" y="0"/>
      <point x="598" y="71"/>
      <point x="598" y="172" type="curve" smooth="yes"/>
      <point x="598" y="258"/>
      <point x="538" y="326"/>
      <point x="452" y="342" type="curve"/>
      <point x="520" y="362"/>
      <point x="568" y="419"/>
      <point x="568" y="490" type="curve" smooth="yes"/>
      <point x="568" y="584"/>
      <point x="498" y="650"/>
      <point x="400" y="650" type="curve" smooth="yes"/>
      <point x="234" y="650" type="line"/>
      <point x="234" y="490" type="line"/>
      <point x="304" y="490" type="line" smooth="yes"/>
      <point x="339" y="490"/>
      <point x="362" y="468"/>
      <point x="362" y="434" type="curve" smooth="yes"/>
      <point x="362" y="400"/>
      <point x="338" y="378"/>
      <point x="300" y="378" type="curve" smooth="yes"/>
      <point x="234" y="378" type="line"/>
      <point x="234" y="286" type="line"/>
      <point x="324" y="286" type="line" smooth="yes"/>
      <point x="363" y="286"/>
      <point x="388" y="262"/>
      <point x="388" y="224" type="curve" smooth="yes"/>
      <point x="388" y="186"/>
      <point x="362" y="162"/>
      <point x="322" y="162" type="curve" smooth="yes"/>
      <point x="234" y="162" type="line"/>
    </contour>
    <contour>
      <point x="42" y="0" type="line"/>
      <point x="254" y="0" type="line"/>
      <point x="254" y="650" type="line"/>
      <point x="42" y="650" type="line"/>
    </contour>
  </outline>
</glyph>
<glyph name="C" format="2">
  <advance width="656"/>
  <unicode hex="0043"/>
  <anchor x="332" y="0" name="bottom"/>
  <anchor x="344" y="650" name="top"/>
  <outline>
    <contour>
      <point x="342" y="-12" type="curve" smooth="yes"/>
      <point x="486" y="-12"/>
      <point x="608" y="72"/>
      <point x="636" y="200" type="curve"/>
      <point x="448" y="278" type="line"/>
      <point x="441" y="220"/>
      <point x="401" y="182"/>
      <point x="346" y="182" type="curve" smooth="yes"/>
      <point x="279" y="182"/>
      <point x="236" y="239"/>
      <point x="236" y="328" type="curve" smooth="yes"/>
      <point x="236" y="414"/>
      <point x="277" y="470"/>
      <point x="342" y="470" type="curve" smooth="yes"/>
      <point x="395" y="470"/>
      <point x="432" y="433"/>
      <point x="436" y="376" type="curve"/>
      <point x="632" y="425" type="line"/>
      <point x="608" y="564"/>
      <point x="488" y="662"/>
      <point x="342" y="662" type="curve" smooth="yes"/>
      <point x="153" y="662"/>
      <point x="20" y="522"/>
      <point x="20" y="324" type="curve" smooth="yes"/>
      <point x="20" y="127"/>
      <point x="153" y="-12"/>
    </contour>
  </outline>
</glyph>
<glyph name="D" format="2">
  <advance width="652"/>
  <unicode hex="0044"/>
  <anchor x="302" y="650" name="top"/>
  <outline>
    <contour>
      <point x="234" y="0" type="line"/>
      <point x="320" y="0" type="line" smooth="yes"/>
      <point x="503" y="0"/>
      <point x="632" y="135"/>
      <point x="632" y="325" type="curve" smooth="yes"/>
      <point x="632" y="515"/>
      <point x="503" y="650"/>
      <point x="320" y="650" type="curve" smooth="yes"/>
      <point x="234" y="650" type="line"/>
      <point x="234" y="474" type="line"/>
      <point x="304" y="474" type="line" smooth="yes"/>
      <point x="372" y="474"/>
      <point x="416" y="416"/>
      <point x="416" y="326" type="curve" smooth="yes"/>
      <point x="416" y="236"/>
      <point x="372" y="178"/>
      <point x="304" y="178" type="curve" smooth="yes"/>
      <point x="234" y="178" type="line"/>
    </contour>
    <contour>
      <point x="42" y="0" type="line"/>
      <point x="254" y="0" type="line"/>
      <point x="254" y="650" type="line"/>
      <point x="42" y="650" type="line"/>
    </contour>
  </outline>
</glyph>
<glyph name="E" format="2">
  <advance width="552"/>
  <unicode hex="0045"/>
  <anchor x="528" y="0" name="ogonek"/>
  <anchor x="288" y="650" name="top"/>
  <outline>
    <contour>
      <point x="42" y="0" type="line"/>
      <point x="254" y="0" type="line"/>
      <point x="254" y="650" type="line"/>
      <point x="42" y="650" type="line"/>
    </contour>
    <contour>
      <point x="234" y="0" type="line"/>
      <point x="528" y="0" type="line"/>
      <point x="528" y="170" type="line"/>
      <point x="234" y="170" type="line"/>
    </contour>
    <contour>
      <point x="234" y="276" type="line"/>
      <point x="448" y="276" type="line"/>
      <point x="448" y="388" type="line"/>
      <point x="234" y="388" type="line"/>
    </contour>
    <contour>
      <point x="234" y="482" type="line"/>
      <point x="516" y="482" type="line"/>
      <point x="516" y="650" type="line"/>
      <point x="234" y="650" type="line"/>
    </contour>
  </outline>
</glyph>
<glyph name="F" format="2">
  <advance width="512"/>
  <unicode hex="0046"/>
  <outline>
    <contour>
      <point x="42" y="0" type="line"/>
      <point x="254" y="0" type="line"/>
      <point x="254" y="650" type="line"/>
      <point x="42" y="650" type="line"/>
    </contour>
    <contour>
      <point x="234" y="226" type="line"/>
      <point x="458" y="226" type="line"/>
      <point x="458" y="358" type="line"/>
      <point x="234" y="358" type="line"/>
    </contour>
    <contour>
      <point x="234" y="466" type="line"/>
      <point x="506" y="466" type="line"/>
      <point x="506" y="650" type="line"/>
      <point x="234" y="650" type="line"/>
    </contour>
  </outline>
</glyph>
<glyph name="G" format="2">
  <advance width="700"/>
  <unicode hex="0047"/>
  <anchor x="338" y="0" name="bottom"/>
  <anchor x="344" y="650" name="top"/>
  <outline>
    <contour>
      <point x="312" y="-12" type="curve" smooth="yes"/>
      <point x="443" y="-12"/>
      <point x="552" y="76"/>
      <point x="560" y="200" type="curve"/>
      <point x="560" y="276" type="line"/>
      <point x="444" y="276" type="line"/>
      <point x="444" y="276" type="line"/>
      <point x="440" y="210"/>
      <point x="401" y="168"/>
      <point x="346" y="168" type="curve" smooth="yes"/>
      <point x="278" y="168"/>
      <point x="232" y="230"/>
      <point x="232" y="324" type="curve" smooth="yes"/>
      <point x="232" y="417"/>
      <point x="277" y="476"/>
      <point x="346" y="476" type="curve" smooth="yes"/>
      <point x="402" y="476"/>
      <point x="440" y="438"/>
      <point x="444" y="380" type="curve"/>
      <point x="640" y="425" type="line"/>
      <point x="620" y="565"/>
      <point x="500" y="662"/>
      <point x="346" y="662" type="curve" smooth="yes"/>
      <point x="155" y="662"/>
      <point x="20" y="519"/>
      <point x="20" y="316" type="curve" smooth="yes"/>
      <point x="20" y="124"/>
      <point x="141" y="-12"/>
    </contour>
    <contour>
      <point x="544" y="0" type="line"/>
      <point x="672" y="0" type="line"/>
      <point x="628" y="356" type="line"/>
      <point x="290" y="356" type="line"/>
      <point x="290" y="260" type="line"/>
      <point x="460" y="260" type="line"/>
      <point x="459" y="152" type="line"/>
    </contour>
  </outline>
</glyph>
<glyph name="H" format="2">
  <advance width="672"/>
  <unicode hex="0048"/>
  <outline>
    <contour>
      <point x="418" y="0" type="line"/>
      <point x="630" y="0" type="line"/>
      <point x="630" y="650" type="line"/>
      <point x="418" y="650" type="line"/>
    </contour>
    <contour>
      <point x="42" y="0" type="line"/>
      <point x="254" y="0" type="line"/>
      <point x="254" y="650" type="line"/>
      <point x="42" y="650" type="line"/>
    </contour>
    <contour>
      <point x="234" y="256" type="line"/>
      <point x="438" y="256" type="line"/>
      <point x="438" y="408" type="line"/>
      <point x="234" y="408" type="line"/>
    </contour>
  </outline>
</glyph>
<glyph name="J" format="2">
  <advance width="604"/>
  <unicode hex="004A"/>
  <outline>
    <contour>
      <point x="296" y="-12" type="curve" smooth="yes"/>
      <point x="456" y="-12"/>
      <point x="570" y="90"/>
      <point x="570" y="232" type="curve" smooth="yes"/>
      <point x="570" y="650" type="line"/>
      <point x="358" y="650" type="line"/>
      <point x="358" y="252" type="line" smooth="yes"/>
      <point x="358" y="212"/>
      <point x="332" y="184"/>
      <point x="296" y="184" type="curve" smooth="yes"/>
      <point x="261" y="184"/>
      <point x="236" y="212"/>
      <point x="236" y="250" type="curve" smooth="yes"/>
      <point x="236" y="368" type="line"/>
      <point x="26" y="368" type="line"/>
      <point x="26" y="228" type="line" smooth="yes"/>
      <point x="26" y="88"/>
      <point x="139" y="-12"/>
    </contour>
  </outline>
</glyph>
<glyph name="K" format="2">
  <advance width="672"/>
  <unicode hex="004B"/>
  <anchor x="336" y="0" name="bottom"/>
  <anchor x="336" y="650" name="top"/>
  <outline>
    <contour>
      <point x="218" y="132" type="line"/>
      <point x="660" y="650" type="line"/>
      <point x="384" y="650" type="line"/>
      <point x="218" y="380" type="line"/>
    </contour>
    <contour>
      <point x="420" y="0" type="line"/>
      <point x="672" y="0" type="line"/>
      <point x="436" y="400" type="line"/>
      <point x="308" y="252" type="line"/>
    </contour>
    <component base="I"/>
  </outline>
</glyph>
<glyph name="L" format="2">
  <advance width="520"/>
  <unicode hex="004C"/>
  <anchor x="288" y="0" name="bottom"/>
  <anchor x="156" y="650" name="top"/>
  <anchor x="366" y="470" name="topright"/>
  <outline>
    <contour>
      <point x="42" y="0" type="line"/>
      <point x="254" y="0" type="line"/>
      <point x="254" y="650" type="line"/>
      <point x="42" y="650" type="line"/>
    </contour>
    <contour>
      <point x="234" y="0" type="line"/>
      <point x="516" y="0" type="line"/>
      <point x="516" y="194" type="line"/>
      <point x="234" y="194" type="line"/>
    </contour>
  </outline>
</glyph>
<glyph name="M" format="2">
  <advance width="804"/>
  <unicode hex="004D"/>
  <outline>
    <contour>
      <point x="42" y="0" type="line"/>
      <point x="246" y="0" type="line"/>
      <point x="246" y="488" type="line"/>
      <point x="346" y="0" type="line"/>
      <point x="460" y="0" type="line"/>
      <point x="558" y="488" type="line"/>
      <point x="558" y="0" type="line"/>
      <point x="762" y="0" type="line"/>
      <point x="762" y="650" type="line"/>
      <point x="498" y="650" type="line"/>
      <point x="406" y="148" type="line"/>
      <point x="312" y="650" type="line"/>
      <point x="42" y="650" type="line"/>
    </contour>
  </outline>
</glyph>
<glyph name="N" format="2">
  <advance width="680"/>
  <unicode hex="004E"/>
  <anchor x="334" y="0" name="bottom"/>
  <anchor x="338" y="650" name="top"/>
  <outline>
    <contour>
      <point x="42" y="0" type="line"/>
      <point x="246" y="0" type="line"/>
      <point x="246" y="392" type="line"/>
      <point x="414" y="0" type="line"/>
      <point x="638" y="0" type="line"/>
      <point x="638" y="650" type="line"/>
      <point x="434" y="650" type="line"/>
      <point x="434" y="244" type="line"/>
      <point x="266" y="650" type="line"/>
      <point x="42" y="650" type="line"/>
    </contour>
  </outline>
</glyph>
<glyph name="O" format="2">
  <advance width="692"/>
  <unicode hex="004F"/>
  <anchor x="346" y="650" name="top"/>
  <outline>
    <contour>
      <point x="346" y="-12" type="curve" smooth="yes"/>
      <point x="538" y="-12"/>
      <point x="672" y="127"/>
      <point x="672" y="325" type="curve" smooth="yes"/>
      <point x="672" y="523"/>
      <point x="538" y="662"/>
      <point x="346" y="662" type="curve" smooth="yes"/>
      <point x="154" y="662"/>
      <point x="20" y="523"/>
      <point x="20" y="325" type="curve" smooth="yes"/>
      <point x="20" y="127"/>
      <point x="154" y="-12"/>
    </contour>
    <contour>
      <point x="346" y="182" type="curve" smooth="yes"/>
      <point x="282" y="182"/>
      <point x="242" y="238"/>
      <point x="242" y="326" type="curve" smooth="yes"/>
      <point x="242" y="414"/>
      <point x="282" y="470"/>
      <point x="346" y="470" type="curve" smooth="yes"/>
      <point x="410" y="470"/>
      <point x="450" y="414"/>
      <point x="450" y="326" type="curve" smooth="yes"/>
      <point x="450" y="238"/>
      <point x="410" y="182"/>
    </contour>
  </outline>
</glyph>
<glyph name="P" format="2">
  <advance width="620"/>
  <unicode hex="0050"/>
  <outline>
    <contour>
      <point x="238" y="182" type="line"/>
      <point x="378" y="182" type="line" smooth="yes"/>
      <point x="515" y="182"/>
      <point x="612" y="280"/>
      <point x="612" y="418" type="curve" smooth="yes"/>
      <point x="612" y="554"/>
      <point x="520" y="650"/>
      <point x="390" y="650" type="curve" smooth="yes"/>
      <point x="238" y="650" type="line"/>
      <point x="238" y="470" type="line"/>
      <point x="314" y="470" type="line" smooth="yes"/>
      <point x="364" y="470"/>
      <point x="396" y="439"/>
      <point x="396" y="390" type="curve" smooth="yes"/>
      <point x="396" y="341"/>
      <point x="364" y="310"/>
      <point x="314" y="310" type="curve" smooth="yes"/>
      <point x="238" y="310" type="line"/>
    </contour>
    <contour>
      <point x="42" y="0" type="line"/>
      <point x="258" y="0" type="line"/>
      <point x="258" y="650" type="line"/>
      <point x="42" y="650" type="line"/>
    </contour>
  </outline>
</glyph>
<glyph name="Q" format="2">
  <advance width="680"/>
  <unicode hex="0051"/>
  <outline>
    <contour>
      <point x="336" y="-12" type="curve" smooth="yes"/>
      <point x="526" y="-12"/>
      <point x="660" y="129"/>
      <point x="660" y="328" type="curve" smooth="yes"/>
      <point x="660" y="524"/>
      <point x="527" y="662"/>
      <point x="340" y="662" type="curve" smooth="yes"/>
      <point x="153" y="662"/>
      <point x="20" y="522"/>
      <point x="20" y="323" type="curve" smooth="yes"/>
      <point x="20" y="127"/>
      <point x="151" y="-12"/>
    </contour>
    <contour>
      <point x="344" y="182" type="curve" smooth="yes"/>
      <point x="278" y="182"/>
      <point x="236" y="238"/>
      <point x="236" y="326" type="curve" smooth="yes"/>
      <point x="236" y="414"/>
      <point x="277" y="470"/>
      <point x="341" y="470" type="curve" smooth="yes"/>
      <point x="404" y="470"/>
      <point x="444" y="414"/>
      <point x="444" y="326" type="curve" smooth="yes"/>
      <point x="444" y="238"/>
      <point x="405" y="182"/>
    </contour>
    <contour>
      <point x="536" y="-112" type="line"/>
      <point x="660" y="-12" type="line"/>
      <point x="524" y="152" type="line"/>
      <point x="400" y="60" type="line"/>
    </contour>
  </outline>
</glyph>
<glyph name="R" format="2">
  <advance width="660"/>
  <unicode hex="0052"/>
  <anchor x="330" y="0" name="bottom"/>
  <anchor x="332" y="650" name="top"/>
  <outline>
    <contour>
      <point x="238" y="212" type="line"/>
      <point x="408" y="212" type="line" smooth="yes"/>
      <point x="539" y="212"/>
      <point x="632" y="303"/>
      <point x="632" y="432" type="curve" smooth="yes"/>
      <point x="632" y="560"/>
      <point x="546" y="650"/>
      <point x="424" y="650" type="curve" smooth="yes"/>
      <point x="238" y="650" type="line"/>
      <point x="238" y="478" type="line"/>
      <point x="332" y="478" type="line" smooth="yes"/>
      <point x="383" y="478"/>
      <point x="416" y="448"/>
      <point x="416" y="402" type="curve" smooth="yes"/>
      <point x="416" y="355"/>
      <point x="382" y="324"/>
      <point x="328" y="324" type="curve" smooth="yes"/>
      <point x="238" y="324" type="line"/>
    </contour>
    <contour>
      <point x="42" y="0" type="line"/>
      <point x="258" y="0" type="line"/>
      <point x="258" y="650" type="line"/>
      <point x="42" y="650" type="line"/>
    </contour>
    <contour>
      <point x="404" y="0" type="line"/>
      <point x="644" y="0" type="line"/>
      <point x="508" y="280" type="line"/>
      <point x="320" y="280" type="line"/>
    </contour>
  </outline>
</glyph>
<glyph name="S" format="2">
  <advance width="596"/>
  <unicode hex="0053"/>
  <note>
Stretta?
</note>
  <anchor x="300" y="0" name="bottom"/>
  <anchor x="300" y="650" name="top"/>
  <outline>
    <contour>
      <point x="304" y="-12" type="curve" smooth="yes"/>
      <point x="470" y="-12"/>
      <point x="584" y="69"/>
      <point x="584" y="184" type="curve" smooth="yes"/>
      <point x="584" y="392"/>
      <point x="242" y="346"/>
      <point x="242" y="446" type="curve" smooth="yes"/>
      <point x="242" y="470"/>
      <point x="262" y="486"/>
      <point x="292" y="486" type="curve" smooth="yes"/>
      <point x="328" y="486"/>
      <point x="354" y="460"/>
      <point x="360" y="418" type="curve"/>
      <point x="568" y="464" type="line"/>
      <point x="560" y="580"/>
      <point x="444" y="662"/>
      <point x="288" y="662" type="curve" smooth="yes"/>
      <point x="138" y="662"/>
      <point x="32" y="587"/>
      <point x="32" y="480" type="curve" smooth="yes"/>
      <point x="32" y="284"/>
      <point x="372" y="324"/>
      <point x="372" y="216" type="curve" smooth="yes"/>
      <point x="372" y="187"/>
      <point x="347" y="168"/>
      <point x="308" y="168" type="curve" smooth="yes"/>
      <point x="258" y="168"/>
      <point x="224" y="198"/>
      <point x="220" y="244" type="curve"/>
      <point x="4" y="204" type="line"/>
      <point x="8" y="76"/>
      <point x="132" y="-12"/>
    </contour>
  </outline>
</glyph>
<glyph name="T" format="2">
  <advance width="588"/>
  <unicode hex="0054"/>
  <anchor x="294" y="0" name="bottom"/>
  <anchor x="294" y="650" name="top"/>
  <outline>
    <contour>
      <point x="188" y="0" type="line"/>
      <point x="400" y="0" type="line"/>
      <point x="400" y="478" type="line"/>
      <point x="188" y="478" type="line"/>
    </contour>
    <contour>
      <point x="2" y="458" type="line"/>
      <point x="586" y="458" type="line"/>
      <point x="586" y="650" type="line"/>
      <point x="2" y="650" type="line"/>
    </contour>
  </outline>
</glyph>
<glyph name="U" format="2">
  <advance width="640"/>
  <unicode hex="0055"/>
  <anchor x="474" y="0" name="ogonek"/>
  <anchor x="322" y="650" name="top"/>
  <outline>
    <contour>
      <point x="320" y="-12" type="curve" smooth="yes"/>
      <point x="494" y="-12"/>
      <point x="606" y="91"/>
      <point x="606" y="252" type="curve" smooth="yes"/>
      <point x="606" y="650" type="line"/>
      <point x="394" y="650" type="line"/>
      <point x="394" y="256" type="line" smooth="yes"/>
      <point x="394" y="205"/>
      <point x="365" y="172"/>
      <point x="320" y="172" type="curve" smooth="yes"/>
      <point x="275" y="172"/>
      <point x="246" y="205"/>
      <point x="246" y="256" type="curve" smooth="yes"/>
      <point x="246" y="650" type="line"/>
      <point x="34" y="650" type="line"/>
      <point x="34" y="252" type="line" smooth="yes"/>
      <point x="34" y="91"/>
      <point x="146" y="-12"/>
    </contour>
  </outline>
</glyph>
<glyph name="V" format="2">
  <advance width="660"/>
  <unicode hex="0056"/>
  <outline>
    <contour>
      <point x="188" y="0" type="line"/>
      <point x="468" y="0" type="line"/>
      <point x="660" y="650" type="line"/>
      <point x="428" y="650" type="line"/>
      <point x="336" y="186" type="line"/>
      <point x="234" y="650" type="line"/>
      <point x="0" y="650" type="line"/>
    </contour>
  </outline>
</glyph>
<glyph name="W" format="2">
  <advance width="792"/>
  <unicode hex="0057"/>
  <note>
make alternate
</note>
  <outline>
    <contour>
      <point x="88" y="0" type="line"/>
      <point x="334" y="0" type="line"/>
      <point x="396" y="492" type="line"/>
      <point x="460" y="0" type="line"/>
      <point x="696" y="0" type="line"/>
      <point x="764" y="650" type="line"/>
      <point x="550" y="650" type="line"/>
      <point x="524" y="192" type="line"/>
      <point x="458" y="648" type="line"/>
      <point x="334" y="648" type="line"/>
      <point x="276" y="192" type="line"/>
      <point x="242" y="650" type="line"/>
      <point x="24" y="650" type="line"/>
    </contour>
  </outline>
</glyph>
<glyph name="X" format="2">
  <advance width="652"/>
  <unicode hex="0058"/>
  <outline>
    <contour>
      <point x="400" y="0" type="line"/>
      <point x="652" y="0" type="line"/>
      <point x="440" y="330" type="line"/>
      <point x="636" y="650" type="line"/>
      <point x="388" y="650" type="line"/>
      <point x="322" y="492" type="line"/>
      <point x="252" y="650" type="line"/>
      <point x="2" y="650" type="line"/>
      <point x="204" y="326" type="line"/>
      <point x="0" y="0" type="line"/>
      <point x="250" y="0" type="line"/>
      <point x="326" y="152" type="line"/>
    </contour>
  </outline>
</glyph>
<glyph name="Y" format="2">
  <advance width="644"/>
  <unicode hex="0059"/>
  <anchor x="334" y="650" name="top"/>
  <outline>
    <contour>
      <point x="224" y="0" type="line"/>
      <point x="436" y="0" type="line"/>
      <point x="436" y="200" type="line"/>
      <point x="646" y="650" type="line"/>
      <point x="402" y="650" type="line"/>
      <point x="332" y="388" type="line"/>
      <point x="246" y="650" type="line"/>
      <point x="-2" y="650" type="line"/>
      <point x="224" y="200" type="line"/>
    </contour>
  </outline>
</glyph>
<glyph name="Z" format="2">
  <advance width="556"/>
  <unicode hex="005A"/>
  <anchor x="286" y="650" name="top"/>
  <outline>
    <contour>
      <point x="24" y="0" type="line"/>
      <point x="532" y="0" type="line"/>
      <point x="532" y="180" type="line"/>
      <point x="236" y="180" type="line"/>
      <point x="524" y="476" type="line"/>
      <point x="524" y="650" type="line"/>
      <point x="32" y="650" type="line"/>
      <point x="32" y="472" type="line"/>
      <point x="316" y="472" type="line"/>
      <point x="24" y="176" type="line"/>
    </contour>
  </outline>
</glyph>
<glyph name="bracketleft" format="2">
  <advance width="362"/>
  <unicode hex="005B"/>
  <outline>
    <contour>
      <point x="42" y="-200" type="line"/>
      <point x="246" y="-200" type="line"/>
      <point x="246" y="680" type="line"/>
      <point x="42" y="680" type="line"/>
    </contour>
    <contour>
      <point x="226" y="-200" type="line"/>
      <point x="360" y="-200" type="line"/>
      <point x="360" y="-46" type="line"/>
      <point x="226" y="-46" type="line"/>
    </contour>
    <contour>
      <point x="226" y="528" type="line"/>
      <point x="358" y="528" type="line"/>
      <point x="358" y="680" type="line"/>
      <point x="226" y="680" type="line"/>
    </contour>
  </outline>
</glyph>
<glyph name="backslash" format="2">
  <advance width="380"/>
  <unicode hex="005C"/>
  <outline>
    <contour>
      <point x="192" y="-216" type="line"/>
      <point x="396" y="-164" type="line"/>
      <point x="198" y="696" type="line"/>
      <point x="-4" y="648" type="line"/>
    </contour>
  </outline>
</glyph>
<glyph name="asciicircum" format="2">
  <advance width="424"/>
  <unicode hex="005E"/>
  <outline>
    <contour>
      <point x="4" y="354" type="line"/>
      <point x="164" y="302" type="line"/>
      <point x="212" y="474" type="line"/>
      <point x="260" y="302" type="line"/>
      <point x="420" y="354" type="line"/>
      <point x="296" y="650" type="line"/>
      <point x="128" y="650" type="line"/>
    </contour>
  </outline>
</glyph>
<glyph name="underscore" format="2">
  <advance width="520"/>
  <unicode hex="005F"/>
  <outline>
    <contour>
      <point x="0" y="-200" type="line"/>
      <point x="520" y="-200" type="line"/>
      <point x="520" y="-28" type="line"/>
      <point x="0" y="-28" type="line"/>
    </contour>
  </outline>
</glyph>
<glyph name="a" format="2">
  <advance width="552"/>
  <unicode hex="0061"/>
  <anchor x="448" y="0" name="ogonek"/>
  <anchor x="286" y="500" name="top"/>
  <outline>
    <contour>
      <point x="186" y="-12" type="curve" smooth="yes"/>
      <point x="286" y="-12"/>
      <point x="358" y="52"/>
      <point x="362" y="140" type="curve"/>
      <point x="316" y="208" type="line"/>
      <point x="316" y="169"/>
      <point x="297" y="144"/>
      <point x="268" y="144" type="curve" smooth="yes"/>
      <point x="246" y="144"/>
      <point x="232" y="157"/>
      <point x="232" y="178" type="curve" smooth="yes"/>
      <point x="232" y="197"/>
      <point x="245" y="212"/>
      <point x="266" y="216" type="curve" smooth="yes"/>
      <point x="286" y="220" type="line" smooth="yes"/>
      <point x="307" y="224"/>
      <point x="328" y="230"/>
      <point x="336" y="234" type="curve"/>
      <point x="316" y="250" type="line"/>
      <point x="316" y="84" type="line"/>
      <point x="348" y="0" type="line"/>
      <point x="518" y="0" type="line"/>
      <point x="516" y="100" type="line"/>
      <point x="516" y="308" type="line" smooth="yes"/>
      <point x="516" y="428"/>
      <point x="420" y="512"/>
      <point x="276" y="512" type="curve" smooth="yes"/>
      <point x="164" y="512"/>
      <point x="79" y="462"/>
      <point x="44" y="384" type="curve"/>
      <point x="236" y="316" type="line"/>
      <point x="240" y="343"/>
      <point x="258" y="360"/>
      <point x="282" y="360" type="curve" smooth="yes"/>
      <point x="303" y="360"/>
      <point x="316" y="347"/>
      <point x="316" y="322" type="curve" smooth="yes"/>
      <point x="316" y="312"/>
      <point x="310" y="304"/>
      <point x="300" y="302" type="curve" smooth="yes"/>
      <point x="148" y="268" type="line" smooth="yes"/>
      <point x="68" y="250"/>
      <point x="20" y="196"/>
      <point x="20" y="128" type="curve" smooth="yes"/>
      <point x="20" y="46"/>
      <point x="90" y="-12"/>
    </contour>
  </outline>
</glyph>
<glyph name="c" format="2">
  <advance width="534"/>
  <unicode hex="0063"/>
  <anchor x="272" y="0" name="bottom"/>
  <anchor x="276" y="500" name="top"/>
  <outline>
    <contour>
      <point x="274" y="-12" type="curve" smooth="yes"/>
      <point x="398" y="-12"/>
      <point x="498" y="64"/>
      <point x="518" y="172" type="curve"/>
      <point x="344" y="236" type="line"/>
      <point x="340" y="197"/>
      <point x="315" y="172"/>
      <point x="280" y="172" type="curve" smooth="yes"/>
      <point x="240" y="172"/>
      <point x="214" y="203"/>
      <point x="214" y="252" type="curve" smooth="yes"/>
      <point x="214" y="299"/>
      <point x="240" y="330"/>
      <point x="280" y="330" type="curve" smooth="yes"/>
      <point x="313" y="330"/>
      <point x="336" y="309"/>
      <point x="338" y="276" type="curve"/>
      <point x="510" y="324" type="line"/>
      <point x="494" y="436"/>
      <point x="400" y="512"/>
      <point x="280" y="512" type="curve" smooth="yes"/>
      <point x="128" y="512"/>
      <point x="20" y="403"/>
      <point x="20" y="250" type="curve" smooth="yes"/>
      <point x="20" y="98"/>
      <point x="126" y="-12"/>
    </contour>
  </outline>
</glyph>
<glyph name="d" format="2">
  <advance width="592"/>
  <unicode hex="0064"/>
  <anchor x="590" y="500" name="topright"/>
  <outline>
    <contour>
      <point x="232" y="-12" type="curve" smooth="yes"/>
      <point x="356" y="-12"/>
      <point x="444" y="98"/>
      <point x="444" y="252" type="curve" smooth="yes"/>
      <point x="444" y="404"/>
      <point x="356" y="512"/>
      <point x="232" y="512" type="curve" smooth="yes"/>
      <point x="108" y="512"/>
      <point x="20" y="402"/>
      <point x="20" y="248" type="curve" smooth="yes"/>
      <point x="20" y="96"/>
      <point x="108" y="-12"/>
    </contour>
    <contour>
      <point x="285" y="166" type="curve" smooth="yes"/>
      <point x="241" y="166"/>
      <point x="210" y="201"/>
      <point x="210" y="251" type="curve" smooth="yes"/>
      <point x="210" y="301"/>
      <point x="241" y="336"/>
      <point x="285" y="336" type="curve" smooth="yes"/>
      <point x="329" y="336"/>
      <point x="360" y="301"/>
      <point x="360" y="251" type="curve" smooth="yes"/>
      <point x="360" y="201"/>
      <point x="329" y="166"/>
    </contour>
    <contour>
      <point x="402" y="0" type="line"/>
      <point x="552" y="0" type="line"/>
      <point x="550" y="100" type="line"/>
      <point x="550" y="680" type="line"/>
      <point x="350" y="680" type="line"/>
      <point x="350" y="403" type="line"/>
      <point x="370" y="251" type="line"/>
      <point x="350" y="68" type="line"/>
    </contour>
  </outline>
</glyph>
<glyph name="e" format="2">
  <advance width="544"/>
  <unicode hex="0065"/>
  <anchor x="424" y="0" name="ogonek"/>
  <anchor x="276" y="500" name="top"/>
  <outline>
    <contour>
      <point x="282" y="-12" type="curve" smooth="yes"/>
      <point x="388" y="-12"/>
      <point x="482" y="40"/>
      <point x="514" y="116" type="curve"/>
      <point x="346" y="192" type="line"/>
      <point x="339" y="168"/>
      <point x="315" y="152"/>
      <point x="284" y="152" type="curve" smooth="yes"/>
      <point x="235" y="152"/>
      <point x="204" y="193"/>
      <point x="204" y="256" type="curve" smooth="yes"/>
      <point x="204" y="314"/>
      <point x="231" y="352"/>
      <point x="274" y="352" type="curve" smooth="yes"/>
      <point x="308" y="352"/>
      <point x="332" y="327"/>
      <point x="336" y="288" type="curve"/>
      <point x="184" y="288" type="line"/>
      <point x="184" y="220" type="line"/>
      <point x="522" y="220" type="line"/>
      <point x="538" y="384"/>
      <point x="438" y="512"/>
      <point x="276" y="512" type="curve" smooth="yes"/>
      <point x="127" y="512"/>
      <point x="20" y="403"/>
      <point x="20" y="250" type="curve" smooth="yes"/>
      <point x="20" y="97"/>
      <point x="129" y="-12"/>
    </contour>
  </outline>
</glyph>
<glyph name="f" format="2">
  <advance width="436"/>
  <unicode hex="0066"/>
  <note>
Ascendente corta?
</note>
  <outline>
    <contour>
      <point x="80" y="0" type="line"/>
      <point x="280" y="0" type="line"/>
      <point x="280" y="460" type="line" smooth="yes"/>
      <point x="280" y="520"/>
      <point x="344" y="540"/>
      <point x="400" y="516" type="curve"/>
      <point x="436" y="668" type="line"/>
      <point x="312" y="724"/>
      <point x="80" y="692"/>
      <point x="80" y="484" type="curve" smooth="yes"/>
    </contour>
    <contour>
      <point x="4" y="284" type="line"/>
      <point x="396" y="284" type="line"/>
      <point x="396" y="436" type="line"/>
      <point x="4" y="436" type="line"/>
    </contour>
  </outline>
</glyph>
<glyph name="g" format="2">
  <advance width="576"/>
  <unicode hex="0067"/>
  <anchor x="304" y="500" name="top"/>
  <outline>
    <contour>
      <point x="268" y="-212" type="curve" smooth="yes"/>
      <point x="421" y="-212"/>
      <point x="536" y="-115"/>
      <point x="536" y="28" type="curve" smooth="yes"/>
      <point x="536" y="500" type="line"/>
      <point x="428" y="500" type="line"/>
      <point x="344" y="416" type="line"/>
      <point x="368" y="259" type="line"/>
      <point x="340" y="97" type="line"/>
      <point x="340" y="8" type="line" smooth="yes"/>
      <point x="340" y="-36"/>
      <point x="318" y="-64"/>
      <point x="284" y="-64" type="curve" smooth="yes"/>
      <point x="252" y="-64"/>
      <point x="230" y="-40"/>
      <point x="228" y="0" type="curve"/>
      <point x="20" y="-40" type="line"/>
      <point x="32" y="-140"/>
      <point x="135" y="-212"/>
    </contour>
    <contour>
      <point x="236" y="40" type="curve" smooth="yes"/>
      <point x="363" y="40"/>
      <point x="452" y="136"/>
      <point x="452" y="272" type="curve" smooth="yes"/>
      <point x="452" y="413"/>
      <point x="361" y="512"/>
      <point x="232" y="512" type="curve" smooth="yes"/>
      <point x="105" y="512"/>
      <point x="16" y="414"/>
      <point x="16" y="276" type="curve" smooth="yes"/>
      <point x="16" y="138"/>
      <point x="107" y="40"/>
    </contour>
    <contour>
      <point x="282" y="148" type="curve" smooth="yes"/>
      <point x="239" y="148"/>
      <point x="212" y="183"/>
      <point x="212" y="238" type="curve" smooth="yes"/>
      <point x="212" y="293"/>
      <point x="239" y="328"/>
      <point x="282" y="328" type="curve" smooth="yes"/>
      <point x="325" y="328"/>
      <point x="352" y="293"/>
      <point x="352" y="238" type="curve" smooth="yes"/>
      <point x="352" y="183"/>
      <point x="325" y="148"/>
    </contour>
  </outline>
</glyph>
<glyph name="h" format="2">
  <advance width="578"/>
  <unicode hex="0068"/>
  <outline>
    <contour>
      <point x="42" y="0" type="line"/>
      <point x="242" y="0" type="line"/>
      <point x="242" y="268" type="line" smooth="yes"/>
      <point x="242" y="303"/>
      <point x="264" y="328"/>
      <point x="294" y="328" type="curve" smooth="yes"/>
      <point x="322" y="328"/>
      <point x="342" y="305"/>
      <point x="342" y="272" type="curve" smooth="yes"/>
      <point x="342" y="0" type="line"/>
      <point x="542" y="0" type="line"/>
      <point x="542" y="324" type="line" smooth="yes"/>
      <point x="542" y="434"/>
      <point x="469" y="512"/>
      <point x="368" y="512" type="curve" smooth="yes"/>
      <point x="295" y="512"/>
      <point x="234" y="472"/>
      <point x="222" y="416" type="curve"/>
      <point x="242" y="416" type="line"/>
      <point x="242" y="680" type="line"/>
      <point x="42" y="680" type="line"/>
    </contour>
  </outline>
</glyph>
<glyph name="k" format="2">
  <advance width="596"/>
  <unicode hex="006B"/>
  <anchor x="300" y="0" name="bottom"/>
  <anchor x="298" y="680" name="top"/>
  <outline>
    <contour>
      <point x="218" y="96" type="line"/>
      <point x="586" y="500" type="line"/>
      <point x="338" y="500" type="line"/>
      <point x="218" y="336" type="line"/>
    </contour>
    <contour>
      <point x="368" y="0" type="line"/>
      <point x="598" y="0" type="line"/>
      <point x="402" y="320" type="line"/>
      <point x="276" y="184" type="line"/>
    </contour>
    <component base="l"/>
  </outline>
</glyph>
<glyph name="l" format="2">
  <advance width="284"/>
  <unicode hex="006C"/>
  <anchor x="142" y="0" name="bottom"/>
  <anchor x="142" y="668" name="top"/>
  <anchor x="282" y="500" name="topright"/>
  <outline>
    <contour>
      <point x="42" y="0" type="line"/>
      <point x="242" y="0" type="line"/>
      <point x="242" y="680" type="line"/>
      <point x="42" y="680" type="line"/>
    </contour>
  </outline>
</glyph>
<glyph name="m" format="2">
  <advance width="824"/>
  <unicode hex="006D"/>
  <outline>
    <contour>
      <point x="40" y="0" type="line"/>
      <point x="236" y="0" type="line"/>
      <point x="236" y="276" type="line" smooth="yes"/>
      <point x="236" y="306"/>
      <point x="254" y="328"/>
      <point x="280" y="328" type="curve" smooth="yes"/>
      <point x="303" y="328"/>
      <point x="320" y="309"/>
      <point x="320" y="282" type="curve" smooth="yes"/>
      <point x="320" y="0" type="line"/>
      <point x="508" y="0" type="line"/>
      <point x="508" y="278" type="line" smooth="yes"/>
      <point x="508" y="307"/>
      <point x="526" y="328"/>
      <point x="552" y="328" type="curve" smooth="yes"/>
      <point x="575" y="328"/>
      <point x="592" y="310"/>
      <point x="592" y="284" type="curve" smooth="yes"/>
      <point x="592" y="0" type="line"/>
      <point x="788" y="0" type="line"/>
      <point x="788" y="344" type="line" smooth="yes"/>
      <point x="788" y="442"/>
      <point x="722" y="512"/>
      <point x="630" y="512" type="curve" smooth="yes"/>
      <point x="552" y="512"/>
      <point x="491" y="465"/>
      <point x="483" y="400" type="curve"/>
      <point x="503" y="400" type="line"/>
      <point x="491" y="465"/>
      <point x="429" y="512"/>
      <point x="354" y="512" type="curve" smooth="yes"/>
      <point x="285" y="512"/>
      <point x="227" y="472"/>
      <point x="216" y="416" type="curve"/>
      <point x="244" y="424" type="line"/>
      <point x="188" y="500" type="line"/>
      <point x="40" y="500" type="line"/>
    </contour>
  </outline>
</glyph>
<glyph name="n" format="2">
  <advance width="576"/>
  <unicode hex="006E"/>
  <anchor x="288" y="0" name="bottom"/>
  <anchor x="296" y="500" name="top"/>
  <outline>
    <contour>
      <point x="40" y="0" type="line"/>
      <point x="240" y="0" type="line"/>
      <point x="240" y="268" type="line" smooth="yes"/>
      <point x="240" y="303"/>
      <point x="262" y="328"/>
      <point x="292" y="328" type="curve" smooth="yes"/>
      <point x="320" y="328"/>
      <point x="340" y="305"/>
      <point x="340" y="272" type="curve" smooth="yes"/>
      <point x="340" y="0" type="line"/>
      <point x="540" y="0" type="line"/>
      <point x="540" y="324" type="line" smooth="yes"/>
      <point x="540" y="434"/>
      <point x="467" y="512"/>
      <point x="364" y="512" type="curve" smooth="yes"/>
      <point x="293" y="512"/>
      <point x="232" y="477"/>
      <point x="216" y="428" type="curve"/>
      <point x="236" y="428" type="line"/>
      <point x="188" y="500" type="line"/>
      <point x="40" y="500" type="line"/>
    </contour>
  </outline>
</glyph>
<glyph name="o" format="2">
  <advance width="548"/>
  <unicode hex="006F"/>
  <anchor x="274" y="500" name="top"/>
  <outline>
    <contour>
      <point x="274" y="-12" type="curve" smooth="yes"/>
      <point x="424" y="-12"/>
      <point x="528" y="96"/>
      <point x="528" y="250" type="curve" smooth="yes"/>
      <point x="528" y="404"/>
      <point x="424" y="512"/>
      <point x="274" y="512" type="curve" smooth="yes"/>
      <point x="124" y="512"/>
      <point x="20" y="404"/>
      <point x="20" y="250" type="curve" smooth="yes"/>
      <point x="20" y="96"/>
      <point x="124" y="-12"/>
    </contour>
    <contour>
      <point x="274" y="170" type="curve" smooth="yes"/>
      <point x="234" y="170"/>
      <point x="208" y="202"/>
      <point x="208" y="251" type="curve" smooth="yes"/>
      <point x="208" y="300"/>
      <point x="234" y="332"/>
      <point x="274" y="332" type="curve" smooth="yes"/>
      <point x="314" y="332"/>
      <point x="340" y="300"/>
      <point x="340" y="251" type="curve" smooth="yes"/>
      <point x="340" y="202"/>
      <point x="314" y="170"/>
    </contour>
  </outline>
</glyph>
<glyph name="p" format="2">
  <advance width="588"/>
  <unicode hex="0070"/>
  <outline>
    <contour>
      <point x="368" y="-12" type="curve" smooth="yes"/>
      <point x="485" y="-12"/>
      <point x="568" y="98"/>
      <point x="568" y="252" type="curve" smooth="yes"/>
      <point x="568" y="404"/>
      <point x="485" y="512"/>
      <point x="370" y="512" type="curve" smooth="yes"/>
      <point x="252" y="512"/>
      <point x="168" y="402"/>
      <point x="168" y="248" type="curve" smooth="yes"/>
      <point x="168" y="96"/>
      <point x="251" y="-12"/>
    </contour>
    <contour>
      <point x="40" y="-200" type="line"/>
      <point x="240" y="-200" type="line"/>
      <point x="240" y="97" type="line"/>
      <point x="220" y="249" type="line"/>
      <point x="240" y="432" type="line"/>
      <point x="188" y="500" type="line"/>
      <point x="40" y="500" type="line"/>
    </contour>
    <contour>
      <point x="304" y="166" type="curve" smooth="yes"/>
      <point x="259" y="166"/>
      <point x="230" y="199"/>
      <point x="230" y="251" type="curve" smooth="yes"/>
      <point x="230" y="303"/>
      <point x="259" y="336"/>
      <point x="304" y="336" type="curve" smooth="yes"/>
      <point x="349" y="336"/>
      <point x="378" y="303"/>
      <point x="378" y="251" type="curve" smooth="yes"/>
      <point x="378" y="199"/>
      <point x="349" y="166"/>
    </contour>
  </outline>
</glyph>
<glyph name="q" format="2">
  <advance width="588"/>
  <unicode hex="0071"/>
  <outline>
    <contour>
      <point x="224" y="-12" type="curve" smooth="yes"/>
      <point x="343" y="-12"/>
      <point x="428" y="98"/>
      <point x="428" y="252" type="curve" smooth="yes"/>
      <point x="428" y="404"/>
      <point x="343" y="512"/>
      <point x="224" y="512" type="curve" smooth="yes"/>
      <point x="105" y="512"/>
      <point x="20" y="402"/>
      <point x="20" y="248" type="curve" smooth="yes"/>
      <point x="20" y="96"/>
      <point x="105" y="-12"/>
    </contour>
    <contour>
      <point x="285" y="166" type="curve" smooth="yes"/>
      <point x="241" y="166"/>
      <point x="210" y="201"/>
      <point x="210" y="251" type="curve" smooth="yes"/>
      <point x="210" y="301"/>
      <point x="241" y="336"/>
      <point x="285" y="336" type="curve" smooth="yes"/>
      <point x="329" y="336"/>
      <point x="360" y="301"/>
      <point x="360" y="251" type="curve" smooth="yes"/>
      <point x="360" y="201"/>
      <point x="329" y="166"/>
    </contour>
    <contour>
      <point x="348" y="-200" type="line"/>
      <point x="548" y="-200" type="line"/>
      <point x="548" y="512" type="line"/>
      <point x="400" y="512" type="line"/>
      <point x="350" y="444" type="line"/>
      <point x="368" y="261" type="line"/>
      <point x="348" y="108" type="line"/>
    </contour>
  </outline>
</glyph>
<glyph name="r" format="2">
  <advance width="400"/>
  <unicode hex="0072"/>
  <note>
Rivedere orecchio
</note>
  <anchor x="144" y="0" name="bottom"/>
  <anchor x="214" y="500" name="top"/>
  <outline>
    <contour>
      <point x="40" y="0" type="line"/>
      <point x="240" y="0" type="line"/>
      <point x="240" y="220" type="line" smooth="yes"/>
      <point x="240" y="292"/>
      <point x="304" y="316"/>
      <point x="364" y="288" type="curve"/>
      <point x="396" y="500" type="line"/>
      <point x="324" y="528"/>
      <point x="240" y="504"/>
      <point x="220" y="432" type="curve"/>
      <point x="240" y="432" type="line"/>
      <point x="188" y="500" type="line"/>
      <point x="40" y="500" type="line"/>
    </contour>
  </outline>
</glyph>
<glyph name="s" format="2">
  <advance width="520"/>
  <unicode hex="0073"/>
  <anchor x="268" y="0" name="bottom"/>
  <anchor x="266" y="500" name="top"/>
  <outline>
    <contour>
      <point x="268" y="-12" type="curve" smooth="yes"/>
      <point x="413" y="-12"/>
      <point x="504" y="51"/>
      <point x="504" y="148" type="curve" smooth="yes"/>
      <point x="504" y="316"/>
      <point x="226" y="276"/>
      <point x="226" y="352" type="curve" smooth="yes"/>
      <point x="226" y="369"/>
      <point x="239" y="380"/>
      <point x="260" y="380" type="curve" smooth="yes"/>
      <point x="290" y="380"/>
      <point x="310" y="360"/>
      <point x="312" y="328" type="curve"/>
      <point x="492" y="356" type="line"/>
      <point x="484" y="448"/>
      <point x="388" y="512"/>
      <point x="256" y="512" type="curve" smooth="yes"/>
      <point x="128" y="512"/>
      <point x="40" y="454"/>
      <point x="40" y="364" type="curve" smooth="yes"/>
      <point x="40" y="204"/>
      <point x="316" y="230"/>
      <point x="316" y="158" type="curve" smooth="yes"/>
      <point x="316" y="140"/>
      <point x="299" y="128"/>
      <point x="272" y="128" type="curve" smooth="yes"/>
      <point x="234" y="128"/>
      <point x="214" y="152"/>
      <point x="212" y="192" type="curve"/>
      <point x="16" y="148" type="line"/>
      <point x="24" y="52"/>
      <point x="128" y="-12"/>
    </contour>
  </outline>
</glyph>
<glyph name="t" format="2">
  <advance width="408"/>
  <unicode hex="0074"/>
  <anchor x="232" y="0" name="bottom"/>
  <anchor x="314" y="500" name="topright"/>
  <outline>
    <contour>
      <point x="408" y="16" type="curve"/>
      <point x="372" y="172" type="line"/>
      <point x="320" y="152"/>
      <point x="268" y="171"/>
      <point x="268" y="228" type="curve" smooth="yes"/>
      <point x="268" y="348" type="line"/>
      <point x="390" y="348" type="line"/>
      <point x="390" y="500" type="line"/>
      <point x="268" y="500" type="line"/>
      <point x="268" y="640" type="line"/>
      <point x="76" y="640" type="line"/>
      <point x="76" y="544" type="line" smooth="yes"/>
      <point x="76" y="517"/>
      <point x="59" y="500"/>
      <point x="34" y="500" type="curve" smooth="yes"/>
      <point x="16" y="500" type="line"/>
      <point x="16" y="348" type="line"/>
      <point x="68" y="348" type="line"/>
      <point x="68" y="168" type="line" smooth="yes"/>
      <point x="68" y="-12"/>
      <point x="284" y="-48"/>
    </contour>
  </outline>
</glyph>
<glyph name="u" format="2">
  <advance width="568"/>
  <unicode hex="0075"/>
  <anchor x="480" y="0" name="ogonek"/>
  <anchor x="282" y="500" name="top"/>
  <outline>
    <contour>
      <point x="216" y="-12" type="curve" smooth="yes"/>
      <point x="287" y="-12"/>
      <point x="344" y="24"/>
      <point x="356" y="64" type="curve"/>
      <point x="336" y="64" type="line"/>
      <point x="380" y="0" type="line"/>
      <point x="530" y="0" type="line"/>
      <point x="528" y="100" type="line"/>
      <point x="528" y="500" type="line"/>
      <point x="328" y="500" type="line"/>
      <point x="328" y="224" type="line" smooth="yes"/>
      <point x="328" y="194"/>
      <point x="309" y="172"/>
      <point x="282" y="172" type="curve" smooth="yes"/>
      <point x="255" y="172"/>
      <point x="236" y="194"/>
      <point x="236" y="224" type="curve" smooth="yes"/>
      <point x="236" y="500" type="line"/>
      <point x="36" y="500" type="line"/>
      <point x="36" y="172" type="line" smooth="yes"/>
      <point x="36" y="65"/>
      <point x="111" y="-12"/>
    </contour>
  </outline>
</glyph>
<glyph name="v" format="2">
  <advance width="568"/>
  <unicode hex="0076"/>
  <outline>
    <contour>
      <point x="166" y="0" type="line"/>
      <point x="412" y="0" type="line"/>
      <point x="570" y="500" type="line"/>
      <point x="358" y="500" type="line"/>
      <point x="291" y="156" type="line"/>
      <point x="214" y="500" type="line"/>
      <point x="-2" y="500" type="line"/>
    </contour>
  </outline>
</glyph>
<glyph name="w" format="2">
  <advance width="700"/>
  <unicode hex="0077"/>
  <outline>
    <contour>
      <point x="92" y="0" type="line"/>
      <point x="312" y="0" type="line"/>
      <point x="351" y="372" type="line"/>
      <point x="392" y="0" type="line"/>
      <point x="608" y="0" type="line"/>
      <point x="684" y="502" type="line"/>
      <point x="480" y="502" type="line"/>
      <point x="460" y="132" type="line"/>
      <point x="400" y="498" type="line"/>
      <point x="300" y="498" type="line"/>
      <point x="252" y="132" type="line"/>
      <point x="228" y="500" type="line"/>
      <point x="16" y="500" type="line"/>
    </contour>
  </outline>
</glyph>
<glyph name="x" format="2">
  <advance width="572"/>
  <unicode hex="0078"/>
  <outline>
    <contour>
      <point x="-2" y="0" type="line"/>
      <point x="240" y="0" type="line"/>
      <point x="285" y="112" type="line"/>
      <point x="332" y="0" type="line"/>
      <point x="574" y="0" type="line"/>
      <point x="395" y="252" type="line"/>
      <point x="566" y="500" type="line"/>
      <point x="330" y="500" type="line"/>
      <point x="284" y="396" type="line"/>
      <point x="238" y="500" type="line"/>
      <point x="-2" y="500" type="line"/>
      <point x="173" y="252" type="line"/>
    </contour>
  </outline>
</glyph>
<glyph name="y" format="2">
  <advance width="542"/>
  <unicode hex="0079"/>
  <anchor x="272" y="500" name="top"/>
  <outline>
    <contour>
      <point x="148" y="-212" type="line"/>
      <point x="231" y="-212"/>
      <point x="311" y="-154"/>
      <point x="340" y="-72" type="curve" smooth="yes"/>
      <point x="544" y="500" type="line"/>
      <point x="330" y="500" type="line"/>
      <point x="275" y="220" type="line"/>
      <point x="212" y="500" type="line"/>
      <point x="-2" y="500" type="line"/>
      <point x="172" y="28" type="line"/>
      <point x="168" y="16" type="line" smooth="yes"/>
      <point x="156" y="-21"/>
      <point x="117" y="-44"/>
      <point x="68" y="-44" type="curve"/>
    </contour>
  </outline>
</glyph>
<glyph name="z" format="2">
  <advance width="480"/>
  <unicode hex="007A"/>
  <anchor x="238" y="500" name="top"/>
  <outline>
    <contour>
      <point x="24" y="0" type="line"/>
      <point x="456" y="0" type="line"/>
      <point x="456" y="182" type="line"/>
      <point x="208" y="182" type="line"/>
      <point x="448" y="328" type="line"/>
      <point x="448" y="500" type="line"/>
      <point x="36" y="500" type="line"/>
      <point x="36" y="320" type="line"/>
      <point x="268" y="320" type="line"/>
      <point x="24" y="176" type="line"/>
    </contour>
  </outline>
</glyph>
<glyph name="braceleft" format="2">
  <advance width="348"/>
  <unicode hex="007B"/>
  <outline>
    <contour>
      <point x="244" y="-200" type="curve" smooth="yes"/>
      <point x="346" y="-200" type="line"/>
      <point x="346" y="-46" type="line"/>
      <point x="340" y="-46" type="line" smooth="yes"/>
      <point x="291" y="-46"/>
      <point x="260" y="-16"/>
      <point x="260" y="30" type="curve" smooth="yes"/>
      <point x="260" y="112" type="line" smooth="yes"/>
      <point x="260" y="180"/>
      <point x="220" y="238"/>
      <point x="156" y="246" type="curve"/>
      <point x="220" y="254"/>
      <point x="260" y="311"/>
      <point x="260" y="376" type="curve" smooth="yes"/>
      <point x="260" y="444" type="line" smooth="yes"/>
      <point x="260" y="495"/>
      <point x="291" y="528"/>
      <point x="340" y="528" type="curve" smooth="yes"/>
      <point x="344" y="528" type="line"/>
      <point x="344" y="680" type="line"/>
      <point x="244" y="680" type="line" smooth="yes"/>
      <point x="143" y="680"/>
      <point x="72" y="612"/>
      <point x="72" y="516" type="curve" smooth="yes"/>
      <point x="72" y="398" type="line" smooth="yes"/>
      <point x="72" y="364"/>
      <point x="49" y="342"/>
      <point x="12" y="342" type="curve" smooth="yes"/>
      <point x="8" y="342" type="line"/>
      <point x="8" y="146" type="line"/>
      <point x="12" y="146" type="line" smooth="yes"/>
      <point x="49" y="146"/>
      <point x="72" y="124"/>
      <point x="72" y="90" type="curve" smooth="yes"/>
      <point x="72" y="-36" type="line" smooth="yes"/>
      <point x="72" y="-132"/>
      <point x="143" y="-200"/>
    </contour>
  </outline>
</glyph>
<glyph name="bar" format="2">
  <advance width="288"/>
  <unicode hex="007C"/>
  <outline>
    <contour>
      <point x="42" y="-200" type="line"/>
      <point x="246" y="-200" type="line"/>
      <point x="246" y="680" type="line"/>
      <point x="42" y="680" type="line"/>
    </contour>
  </outline>
</glyph>
<glyph name="asciitilde" format="2">
  <advance width="600"/>
  <unicode hex="007E"/>
  <outline>
    <contour>
      <point x="404" y="204" type="curve" smooth="yes"/>
      <point x="476" y="204"/>
      <point x="520" y="260"/>
      <point x="520" y="348" type="curve" smooth="yes"/>
      <point x="520" y="428" type="line"/>
      <point x="356" y="428" type="line"/>
      <point x="356" y="424" type="line" smooth="yes"/>
      <point x="356" y="400"/>
      <point x="342" y="384"/>
      <point x="320" y="384" type="curve" smooth="yes"/>
      <point x="280" y="384"/>
      <point x="264" y="436"/>
      <point x="196" y="436" type="curve" smooth="yes"/>
      <point x="124" y="436"/>
      <point x="80" y="380"/>
      <point x="80" y="292" type="curve" smooth="yes"/>
      <point x="80" y="212" type="line"/>
      <point x="244" y="212" type="line"/>
      <point x="244" y="216" type="line" smooth="yes"/>
      <point x="244" y="240"/>
      <point x="258" y="255"/>
      <point x="280" y="255" type="curve" smooth="yes"/>
      <point x="320" y="255"/>
      <point x="336" y="204"/>
    </contour>
  </outline>
</glyph>
<glyph name="exclamdown" format="2">
  <advance width="264"/>
  <unicode hex="00A1"/>
  <outline>
    <contour>
      <point x="32" y="-200" type="line"/>
      <point x="232" y="-200" type="line"/>
      <point x="200" y="244" type="line"/>
      <point x="64" y="244" type="line"/>
    </contour>
    <component base="period" xOffset="-4" yOffset="316"/>
  </outline>
</glyph>
<glyph name="cent" format="2">
  <advance width="534"/>
  <unicode hex="00A2"/>
  <outline>
    <contour>
      <point x="224" y="408" type="line"/>
      <point x="368" y="384" type="line"/>
      <point x="408" y="632" type="line"/>
      <point x="260" y="654" type="line"/>
    </contour>
    <contour>
      <point x="324" y="96" type="line"/>
      <point x="180" y="120" type="line"/>
      <point x="140" y="-124" type="line"/>
      <point x="290" y="-146" type="line"/>
    </contour>
    <component base="c"/>
  </outline>
</glyph>
<glyph name="sterling" format="2">
  <advance width="556"/>
  <unicode hex="00A3"/>
  <outline>
    <contour>
      <point x="52" y="0" type="line"/>
      <point x="536" y="0" type="line"/>
      <point x="536" y="180" type="line"/>
      <point x="196" y="180" type="line"/>
      <point x="252" y="193"/>
      <point x="288" y="233"/>
      <point x="288" y="288" type="curve" smooth="yes"/>
      <point x="288" y="348"/>
      <point x="244" y="376"/>
      <point x="244" y="428" type="curve" smooth="yes"/>
      <point x="244" y="459"/>
      <point x="260" y="480"/>
      <point x="284" y="480" type="curve" smooth="yes"/>
      <point x="308" y="480"/>
      <point x="324" y="461"/>
      <point x="324" y="432" type="curve"/>
      <point x="532" y="460" type="line"/>
      <point x="524" y="582"/>
      <point x="426" y="662"/>
      <point x="284" y="662" type="curve" smooth="yes"/>
      <point x="148" y="662"/>
      <point x="60" y="589"/>
      <point x="60" y="484" type="curve" smooth="yes"/>
      <point x="60" y="380"/>
      <point x="144" y="352"/>
      <point x="144" y="280" type="curve" smooth="yes"/>
      <point x="144" y="232"/>
      <point x="108" y="196"/>
      <point x="52" y="188" type="curve"/>
    </contour>
    <contour>
      <point x="36" y="236" type="line"/>
      <point x="424" y="236" type="line"/>
      <point x="464" y="372" type="line"/>
      <point x="36" y="372" type="line"/>
    </contour>
  </outline>
</glyph>
<glyph name="currency" format="2">
  <advance width="600"/>
  <unicode hex="00A4"/>
  <outline>
    <contour>
      <point x="170" y="80" type="line"/>
      <point x="281" y="196" type="line"/>
      <point x="180" y="301" type="line"/>
      <point x="64" y="180" type="line"/>
    </contour>
    <contour>
      <point x="430" y="80" type="line"/>
      <point x="536" y="180" type="line"/>
      <point x="442" y="277" type="line"/>
      <point x="339" y="174" type="line"/>
    </contour>
    <contour>
      <point x="420" y="341" type="line"/>
      <point x="532" y="458" type="line"/>
      <point x="428" y="558" type="line"/>
      <point x="316" y="442" type="line"/>
    </contour>
    <contour>
      <point x="174" y="346" type="line"/>
      <point x="276" y="448" type="line"/>
      <point x="172" y="556" type="line"/>
      <point x="68" y="456" type="line"/>
    </contour>
    <component base="degree" xOffset="120" yOffset="-175"/>
  </outline>
</glyph>
<glyph name="yen" format="2">
  <advance width="656"/>
  <unicode hex="00A5"/>
  <outline>
    <contour>
      <point x="116" y="92" type="line"/>
      <point x="548" y="92" type="line"/>
      <point x="548" y="260" type="line"/>
      <point x="116" y="260" type="line"/>
    </contour>
    <component base="Y" xOffset="6"/>
  </outline>
</glyph>
<glyph name="brokenbar" format="2">
  <advance width="288"/>
  <unicode hex="00A6"/>
  <outline>
    <contour>
      <point x="42" y="-200" type="line"/>
      <point x="246" y="-200" type="line"/>
      <point x="246" y="200" type="line"/>
      <point x="42" y="200" type="line"/>
    </contour>
    <contour>
      <point x="42" y="296" type="line"/>
      <point x="246" y="296" type="line"/>
      <point x="246" y="680" type="line"/>
      <point x="42" y="680" type="line"/>
    </contour>
  </outline>
</glyph>
<glyph name="section" format="2">
  <advance width="540"/>
  <unicode hex="00A7"/>
  <outline>
    <contour>
      <point x="276" y="-212" type="curve" smooth="yes"/>
      <point x="426" y="-212"/>
      <point x="528" y="-136"/>
      <point x="528" y="-32" type="curve" smooth="yes"/>
      <point x="528" y="152"/>
      <point x="218" y="136"/>
      <point x="218" y="240" type="curve" smooth="yes"/>
      <point x="218" y="272"/>
      <point x="248" y="292"/>
      <point x="294" y="292" type="curve"/>
      <point x="140" y="376" type="line"/>
      <point x="76" y="348"/>
      <point x="32" y="306"/>
      <point x="32" y="244" type="curve" smooth="yes"/>
      <point x="32" y="72"/>
      <point x="336" y="88"/>
      <point x="336" y="-4" type="curve" smooth="yes"/>
      <point x="336" y="-32"/>
      <point x="313" y="-50"/>
      <point x="276" y="-50" type="curve" smooth="yes"/>
      <point x="230" y="-50"/>
      <point x="199" y="-24"/>
      <point x="196" y="16" type="curve"/>
      <point x="4" y="-16" type="line"/>
      <point x="8" y="-132"/>
      <point x="121" y="-212"/>
    </contour>
    <contour>
      <point x="432" y="100" type="line"/>
      <point x="484" y="120"/>
      <point x="516" y="166"/>
      <point x="516" y="224" type="curve" smooth="yes"/>
      <point x="516" y="400"/>
      <point x="220" y="380"/>
      <point x="220" y="468" type="curve" smooth="yes"/>
      <point x="220" y="490"/>
      <point x="238" y="504"/>
      <point x="264" y="504" type="curve" smooth="yes"/>
      <point x="296" y="504"/>
      <point x="319" y="481"/>
      <point x="324" y="444" type="curve"/>
      <point x="510" y="484" type="line"/>
      <point x="503" y="587"/>
      <point x="399" y="662"/>
      <point x="260" y="662" type="curve" smooth="yes"/>
      <point x="126" y="662"/>
      <point x="36" y="595"/>
      <point x="36" y="500" type="curve" smooth="yes"/>
      <point x="36" y="338"/>
      <point x="330" y="336"/>
      <point x="330" y="236" type="curve" smooth="yes"/>
      <point x="330" y="204"/>
      <point x="299" y="184"/>
      <point x="252" y="184" type="curve"/>
    </contour>
  </outline>
</glyph>
<glyph name="copyright" format="2">
  <advance width="744"/>
  <unicode hex="00A9"/>
  <outline>
    <contour>
      <point x="372" y="-56" type="curve" smooth="yes"/>
      <point x="578" y="-56"/>
      <point x="724" y="94"/>
      <point x="724" y="305" type="curve" smooth="yes"/>
      <point x="724" y="516"/>
      <point x="578" y="666"/>
      <point x="372" y="666" type="curve" smooth="yes"/>
      <point x="166" y="666"/>
      <point x="20" y="516"/>
      <point x="20" y="305" type="curve" smooth="yes"/>
      <point x="20" y="94"/>
      <point x="166" y="-56"/>
    </contour>
    <contour>
      <point x="372" y="60" type="curve" smooth="yes"/>
      <point x="233" y="60"/>
      <point x="144" y="156"/>
      <point x="144" y="306" type="curve" smooth="yes"/>
      <point x="144" y="456"/>
      <point x="233" y="552"/>
      <point x="372" y="552" type="curve" smooth="yes"/>
      <point x="511" y="552"/>
      <point x="600" y="456"/>
      <point x="600" y="306" type="curve" smooth="yes"/>
      <point x="600" y="156"/>
      <point x="511" y="60"/>
    </contour>
    <contour>
      <point x="376" y="92" type="curve" smooth="yes"/>
      <point x="471" y="92"/>
      <point x="551" y="148"/>
      <point x="569" y="242" type="curve"/>
      <point x="422" y="288" type="line"/>
      <point x="420" y="262"/>
      <point x="403" y="246"/>
      <point x="380" y="246" type="curve" smooth="yes"/>
      <point x="351" y="246"/>
      <point x="332" y="269"/>
      <point x="332" y="306" type="curve" smooth="yes"/>
      <point x="332" y="341"/>
      <point x="350" y="364"/>
      <point x="378" y="364" type="curve" smooth="yes"/>
      <point x="400" y="364"/>
      <point x="416" y="350"/>
      <point x="420" y="328" type="curve"/>
      <point x="563" y="374" type="line"/>
      <point x="543" y="462"/>
      <point x="466" y="516"/>
      <point x="374" y="516" type="curve" smooth="yes"/>
      <point x="256" y="516"/>
      <point x="176" y="429"/>
      <point x="176" y="306" type="curve" smooth="yes"/>
      <point x="176" y="183"/>
      <point x="257" y="92"/>
    </contour>
  </outline>
</glyph>
<glyph name="ordfeminine" format="2">
  <advance width="344"/>
  <unicode hex="00AA"/>
  <outline>
    <contour>
      <point x="120" y="334" type="curve" smooth="yes"/>
      <point x="178" y="334"/>
      <point x="220" y="372"/>
      <point x="224" y="416" type="curve"/>
      <point x="204" y="480" type="line"/>
      <point x="204" y="456"/>
      <point x="188" y="438"/>
      <point x="168" y="438" type="curve" smooth="yes"/>
      <point x="156" y="438"/>
      <point x="148" y="445"/>
      <point x="148" y="456" type="curve" smooth="yes"/>
      <point x="148" y="466"/>
      <point x="156" y="473"/>
      <point x="168" y="476" type="curve" smooth="yes"/>
      <point x="204" y="484" type="line"/>
      <point x="204" y="393" type="line"/>
      <point x="232" y="342" type="line"/>
      <point x="320" y="342" type="line"/>
      <point x="320" y="532" type="line" smooth="yes"/>
      <point x="320" y="603"/>
      <point x="255" y="654"/>
      <point x="178" y="654" type="curve" smooth="yes"/>
      <point x="116" y="654"/>
      <point x="51" y="627"/>
      <point x="36" y="576" type="curve"/>
      <point x="156" y="534" type="line"/>
      <point x="158" y="547"/>
      <point x="170" y="556"/>
      <point x="184" y="556" type="curve" smooth="yes"/>
      <point x="196" y="556"/>
      <point x="204" y="550"/>
      <point x="204" y="541" type="curve" smooth="yes"/>
      <point x="204" y="536"/>
      <point x="202" y="533"/>
      <point x="196" y="532" type="curve" smooth="yes"/>
      <point x="100" y="512" type="line" smooth="yes"/>
      <point x="56" y="503"/>
      <point x="20" y="468"/>
      <point x="20" y="422" type="curve" smooth="yes"/>
      <point x="20" y="372"/>
      <point x="62" y="334"/>
    </contour>
  </outline>
</glyph>
<glyph name="logicalnot" format="2">
  <advance width="600"/>
  <unicode hex="00AC"/>
  <outline>
    <contour>
      <point x="80" y="244" type="line"/>
      <point x="516" y="244" type="line"/>
      <point x="516" y="428" type="line"/>
      <point x="80" y="428" type="line"/>
    </contour>
    <contour>
      <point x="328" y="88" type="line"/>
      <point x="516" y="88" type="line"/>
      <point x="516" y="264" type="line"/>
      <point x="328" y="264" type="line"/>
    </contour>
  </outline>
</glyph>
<glyph name="registered" format="2">
  <advance width="744"/>
  <unicode hex="00AE"/>
  <outline>
    <contour>
      <point x="372" y="-56" type="curve" smooth="yes"/>
      <point x="578" y="-56"/>
      <point x="724" y="94"/>
      <point x="724" y="305" type="curve" smooth="yes"/>
      <point x="724" y="516"/>
      <point x="578" y="666"/>
      <point x="372" y="666" type="curve" smooth="yes"/>
      <point x="166" y="666"/>
      <point x="20" y="516"/>
      <point x="20" y="305" type="curve" smooth="yes"/>
      <point x="20" y="94"/>
      <point x="166" y="-56"/>
    </contour>
    <contour>
      <point x="228" y="121" type="line"/>
      <point x="344" y="121" type="line"/>
      <point x="344" y="491" type="line"/>
      <point x="228" y="491" type="line"/>
    </contour>
    <contour>
      <point x="404" y="121" type="line"/>
      <point x="532" y="121" type="line"/>
      <point x="480" y="284" type="line"/>
      <point x="380" y="272" type="line"/>
    </contour>
    <contour>
      <point x="372" y="60" type="curve" smooth="yes"/>
      <point x="233" y="60"/>
      <point x="144" y="156"/>
      <point x="144" y="306" type="curve" smooth="yes"/>
      <point x="144" y="456"/>
      <point x="233" y="552"/>
      <point x="372" y="552" type="curve" smooth="yes"/>
      <point x="511" y="552"/>
      <point x="600" y="456"/>
      <point x="600" y="306" type="curve" smooth="yes"/>
      <point x="600" y="156"/>
      <point x="511" y="60"/>
    </contour>
    <contour>
      <point x="324" y="236" type="line"/>
      <point x="412" y="236" type="line" smooth="yes"/>
      <point x="486" y="236"/>
      <point x="538" y="289"/>
      <point x="538" y="364" type="curve" smooth="yes"/>
      <point x="538" y="438"/>
      <point x="487" y="491"/>
      <point x="414" y="491" type="curve" smooth="yes"/>
      <point x="324" y="491" type="line"/>
      <point x="324" y="379" type="line"/>
      <point x="384" y="379" type="line" smooth="yes"/>
      <point x="402" y="379"/>
      <point x="414" y="367"/>
      <point x="414" y="348" type="curve" smooth="yes"/>
      <point x="414" y="329"/>
      <point x="402" y="317"/>
      <point x="384" y="317" type="curve" smooth="yes"/>
      <point x="324" y="317" type="line"/>
    </contour>
  </outline>
</glyph>
<glyph name="degree" format="2">
  <advance width="352"/>
  <unicode hex="00B0"/>
  <outline>
    <contour>
      <point x="176" y="334" type="curve" smooth="yes"/>
      <point x="267" y="334"/>
      <point x="332" y="401"/>
      <point x="332" y="494" type="curve" smooth="yes"/>
      <point x="332" y="587"/>
      <point x="267" y="654"/>
      <point x="176" y="654" type="curve" smooth="yes"/>
      <point x="85" y="654"/>
      <point x="20" y="587"/>
      <point x="20" y="494" type="curve" smooth="yes"/>
      <point x="20" y="401"/>
      <point x="85" y="334"/>
    </contour>
    <contour>
      <point x="176" y="456" type="curve" smooth="yes"/>
      <point x="156" y="456"/>
      <point x="142" y="472"/>
      <point x="142" y="494" type="curve" smooth="yes"/>
      <point x="142" y="516"/>
      <point x="156" y="532"/>
      <point x="176" y="532" type="curve" smooth="yes"/>
      <point x="196" y="532"/>
      <point x="210" y="516"/>
      <point x="210" y="494" type="curve" smooth="yes"/>
      <point x="210" y="472"/>
      <point x="196" y="456"/>
    </contour>
  </outline>
</glyph>
<glyph name="twosuperior" format="2">
  <advance width="288"/>
  <unicode hex="00B2"/>
  <outline>
    <contour>
      <point x="24" y="346" type="line"/>
      <point x="266" y="346" type="line"/>
      <point x="266" y="454" type="line"/>
      <point x="140" y="454" type="line"/>
      <point x="164" y="482"/>
      <point x="268" y="488"/>
      <point x="268" y="568" type="curve" smooth="yes"/>
      <point x="268" y="623"/>
      <point x="220" y="662"/>
      <point x="152" y="662" type="curve" smooth="yes"/>
      <point x="74" y="662"/>
      <point x="22" y="613"/>
      <point x="20" y="544" type="curve"/>
      <point x="124" y="536" type="line"/>
      <point x="124" y="552"/>
      <point x="132" y="566"/>
      <point x="144" y="566" type="curve" smooth="yes"/>
      <point x="152" y="566"/>
      <point x="158" y="560"/>
      <point x="158" y="550" type="curve" smooth="yes"/>
      <point x="158" y="498"/>
      <point x="24" y="484"/>
      <point x="24" y="374" type="curve" smooth="yes"/>
    </contour>
  </outline>
</glyph>
<glyph name="threesuperior" format="2">
  <advance width="296"/>
  <unicode hex="00B3"/>
  <outline>
    <contour>
      <point x="146" y="334" type="curve" smooth="yes"/>
      <point x="222" y="334"/>
      <point x="276" y="380"/>
      <point x="276" y="444" type="curve" smooth="yes"/>
      <point x="276" y="488"/>
      <point x="252" y="516"/>
      <point x="220" y="528" type="curve"/>
      <point x="256" y="546" type="line"/>
      <point x="256" y="650" type="line"/>
      <point x="32" y="650" type="line"/>
      <point x="32" y="550" type="line"/>
      <point x="160" y="550" type="line"/>
      <point x="112" y="520" type="line"/>
      <point x="132" y="488" type="line"/>
      <point x="152" y="492"/>
      <point x="168" y="484"/>
      <point x="168" y="464" type="curve" smooth="yes"/>
      <point x="168" y="449"/>
      <point x="159" y="440"/>
      <point x="146" y="440" type="curve" smooth="yes"/>
      <point x="133" y="440"/>
      <point x="124" y="449"/>
      <point x="124" y="464" type="curve"/>
      <point x="16" y="448" type="line"/>
      <point x="16" y="382"/>
      <point x="70" y="334"/>
    </contour>
  </outline>
</glyph>
<glyph name="micro" format="2">
  <advance width="572"/>
  <unicode hex="00B5"/>
  <outline>
    <contour>
      <point x="40" y="-200" type="line"/>
      <point x="240" y="-200" type="line"/>
      <point x="240" y="500" type="line"/>
      <point x="40" y="500" type="line"/>
    </contour>
    <contour>
      <point x="256" y="-12" type="curve" smooth="yes"/>
      <point x="308" y="-12"/>
      <point x="353" y="19"/>
      <point x="364" y="64" type="curve"/>
      <point x="332" y="220" type="line"/>
      <point x="330" y="190"/>
      <point x="314" y="172"/>
      <point x="288" y="172" type="curve" smooth="yes"/>
      <point x="259" y="172"/>
      <point x="240" y="194"/>
      <point x="240" y="228" type="curve"/>
      <point x="120" y="164" type="line"/>
      <point x="120" y="61"/>
      <point x="176" y="-12"/>
    </contour>
    <contour>
      <point x="384" y="0" type="line"/>
      <point x="534" y="0" type="line"/>
      <point x="532" y="100" type="line"/>
      <point x="532" y="500" type="line"/>
      <point x="332" y="500" type="line"/>
      <point x="332" y="68" type="line"/>
      <point x="332" y="68" type="line"/>
    </contour>
  </outline>
</glyph>
<glyph name="paragraph" format="2">
  <advance width="606"/>
  <unicode hex="00B6"/>
  <outline>
    <contour>
      <point x="232" y="-200" type="line"/>
      <point x="336" y="-200" type="line"/>
      <point x="336" y="650" type="line"/>
      <point x="220" y="650" type="line" smooth="yes"/>
      <point x="97" y="650"/>
      <point x="8" y="562"/>
      <point x="8" y="440" type="curve" smooth="yes"/>
      <point x="8" y="319"/>
      <point x="102" y="232"/>
      <point x="232" y="232" type="curve" smooth="yes"/>
      <point x="252" y="232" type="line"/>
      <point x="232" y="252" type="line"/>
    </contour>
    <contour>
      <point x="364" y="-200" type="line"/>
      <point x="564" y="-200" type="line"/>
      <point x="564" y="650" type="line"/>
      <point x="364" y="650" type="line"/>
    </contour>
  </outline>
</glyph>
<glyph name="onesuperior" format="2">
  <advance width="204"/>
  <unicode hex="00B9"/>
  <outline>
    <contour>
      <point x="56" y="338" type="line"/>
      <point x="172" y="338" type="line"/>
      <point x="172" y="650" type="line"/>
      <point x="60" y="650" type="line"/>
      <point x="60" y="636" type="line" smooth="yes"/>
      <point x="60" y="614"/>
      <point x="47" y="600"/>
      <point x="26" y="600" type="curve" smooth="yes"/>
      <point x="8" y="600" type="line"/>
      <point x="8" y="504" type="line"/>
      <point x="56" y="504" type="line"/>
    </contour>
  </outline>
</glyph>
<glyph name="questiondown" format="2">
  <advance width="508"/>
  <unicode hex="00BF"/>
  <outline>
    <contour>
      <point x="250" y="-212" type="curve" smooth="yes"/>
      <point x="396" y="-212"/>
      <point x="502" y="-113"/>
      <point x="506" y="26" type="curve"/>
      <point x="304" y="50" type="line"/>
      <point x="304" y="2"/>
      <point x="284" y="-26"/>
      <point x="252" y="-26" type="curve" smooth="yes"/>
      <point x="224" y="-26"/>
      <point x="206" y="-5"/>
      <point x="206" y="28" type="curve" smooth="yes"/>
      <point x="206" y="112"/>
      <point x="326" y="112"/>
      <point x="338" y="260" type="curve"/>
      <point x="198" y="260" type="line"/>
      <point x="162" y="136"/>
      <point x="14" y="152"/>
      <point x="14" y="-12" type="curve" smooth="yes"/>
      <point x="14" y="-131"/>
      <point x="112" y="-212"/>
    </contour>
    <component base="period" xOffset="130" yOffset="316"/>
  </outline>
</glyph>
<glyph name="AE" format="2">
  <advance width="938"/>
  <unicode hex="00C6"/>
  <outline>
    <contour>
      <point x="444" y="0" type="line"/>
      <point x="656" y="0" type="line"/>
      <point x="656" y="650" type="line"/>
      <point x="444" y="650" type="line"/>
    </contour>
    <contour>
      <point x="636" y="0" type="line"/>
      <point x="914" y="0" type="line"/>
      <point x="914" y="168" type="line"/>
      <point x="636" y="168" type="line"/>
    </contour>
    <contour>
      <point x="636" y="277" type="line"/>
      <point x="838" y="277" type="line"/>
      <point x="838" y="387" type="line"/>
      <point x="636" y="387" type="line"/>
    </contour>
    <contour>
      <point x="335" y="484" type="line"/>
      <point x="902" y="484" type="line"/>
      <point x="902" y="650" type="line"/>
      <point x="335" y="650" type="line"/>
    </contour>
    <contour>
      <point x="2" y="0" type="line"/>
      <point x="236" y="0" type="line"/>
      <point x="502" y="650" type="line"/>
      <point x="302" y="650" type="line"/>
    </contour>
    <contour>
      <point x="186" y="136" type="line"/>
      <point x="470" y="136" type="line"/>
      <point x="470" y="248" type="line"/>
      <point x="186" y="248" type="line"/>
    </contour>
  </outline>
</glyph>
<glyph name="Idieresis" format="2">
  <advance width="292"/>
  <unicode hex="00CF"/>
  <outline>
    <contour>
      <point x="250" y="690" type="curve" smooth="yes"/>
      <point x="307" y="690"/>
      <point x="344" y="725"/>
      <point x="344" y="780" type="curve" smooth="yes"/>
      <point x="344" y="835"/>
      <point x="307" y="870"/>
      <point x="250" y="870" type="curve" smooth="yes"/>
      <point x="193" y="870"/>
      <point x="156" y="835"/>
      <point x="156" y="780" type="curve" smooth="yes"/>
      <point x="156" y="725"/>
      <point x="193" y="690"/>
    </contour>
    <contour>
      <point x="42" y="690" type="curve" smooth="yes"/>
      <point x="99" y="690"/>
      <point x="136" y="725"/>
      <point x="136" y="780" type="curve" smooth="yes"/>
      <point x="136" y="835"/>
      <point x="99" y="870"/>
      <point x="42" y="870" type="curve" smooth="yes"/>
      <point x="-15" y="870"/>
      <point x="-52" y="835"/>
      <point x="-52" y="780" type="curve" smooth="yes"/>
      <point x="-52" y="725"/>
      <point x="-15" y="690"/>
    </contour>
    <component base="I" xOffset="2"/>
  </outline>
</glyph>
<glyph name="Eth" format="2">
  <advance width="662"/>
  <unicode hex="00D0"/>
  <outline>
    <contour>
      <point x="0" y="278" type="line"/>
      <point x="360" y="278" type="line"/>
      <point x="360" y="378" type="line"/>
      <point x="0" y="378" type="line"/>
    </contour>
    <component base="D" xOffset="10"/>
  </outline>
</glyph>
<glyph name="multiply" format="2">
  <advance width="600"/>
  <unicode hex="00D7"/>
  <outline>
    <contour>
      <point x="218" y="108" type="line"/>
      <point x="300" y="190" type="line"/>
      <point x="382" y="108" type="line"/>
      <point x="516" y="240" type="line"/>
      <point x="430" y="322" type="line"/>
      <point x="514" y="403" type="line"/>
      <point x="382" y="536" type="line"/>
      <point x="300" y="454" type="line"/>
      <point x="218" y="536" type="line"/>
      <point x="86" y="403" type="line"/>
      <point x="170" y="322" type="line"/>
      <point x="84" y="240" type="line"/>
    </contour>
  </outline>
</glyph>
<glyph name="Oslash" format="2">
  <advance width="692"/>
  <unicode hex="00D8"/>
  <outline>
    <contour>
      <point x="140" y="-38" type="line"/>
      <point x="660" y="612" type="line"/>
      <point x="564" y="690" type="line"/>
      <point x="44" y="42" type="line"/>
    </contour>
    <component base="O"/>
  </outline>
</glyph>
<glyph name="Thorn" format="2">
  <advance width="640"/>
  <unicode hex="00DE"/>
  <outline>
    <contour>
      <point x="238" y="90" type="line"/>
      <point x="380" y="90" type="line" smooth="yes"/>
      <point x="521" y="90"/>
      <point x="620" y="191"/>
      <point x="620" y="334" type="curve" smooth="yes"/>
      <point x="620" y="475"/>
      <point x="526" y="574"/>
      <point x="392" y="574" type="curve" smooth="yes"/>
      <point x="238" y="574" type="line"/>
      <point x="238" y="406" type="line"/>
      <point x="330" y="406" type="line" smooth="yes"/>
      <point x="375" y="406"/>
      <point x="404" y="377"/>
      <point x="404" y="332" type="curve" smooth="yes"/>
      <point x="404" y="288"/>
      <point x="374" y="260"/>
      <point x="328" y="260" type="curve" smooth="yes"/>
      <point x="238" y="260" type="line"/>
    </contour>
    <contour>
      <point x="42" y="0" type="line"/>
      <point x="258" y="0" type="line"/>
      <point x="258" y="650" type="line"/>
      <point x="42" y="650" type="line"/>
    </contour>
  </outline>
</glyph>
<glyph name="germandbls" format="2">
  <advance width="612"/>
  <unicode hex="00DF"/>
  <outline>
    <contour>
      <point x="42" y="-200" type="line"/>
      <point x="242" y="-200" type="line"/>
      <point x="242" y="432" type="line" smooth="yes"/>
      <point x="242" y="481"/>
      <point x="269" y="512"/>
      <point x="312" y="512" type="curve" smooth="yes"/>
      <point x="349" y="512"/>
      <point x="372" y="492"/>
      <point x="372" y="462" type="curve" smooth="yes"/>
      <point x="372" y="432"/>
      <point x="348" y="412"/>
      <point x="310" y="412" type="curve" smooth="yes"/>
      <point x="300" y="412" type="line"/>
      <point x="300" y="308" type="line"/>
      <point x="312" y="308" type="line" smooth="yes"/>
      <point x="363" y="308"/>
      <point x="396" y="283"/>
      <point x="396" y="244" type="curve" smooth="yes"/>
      <point x="396" y="196"/>
      <point x="346" y="168"/>
      <point x="270" y="184" type="curve"/>
      <point x="262" y="-4" type="line"/>
      <point x="458" y="-39"/>
      <point x="592" y="44"/>
      <point x="592" y="196" type="curve" smooth="yes"/>
      <point x="592" y="287"/>
      <point x="539" y="355"/>
      <point x="456" y="370" type="curve"/>
      <point x="522" y="390"/>
      <point x="564" y="445"/>
      <point x="564" y="512" type="curve" smooth="yes"/>
      <point x="564" y="617"/>
      <point x="466" y="692"/>
      <point x="328" y="692" type="curve" smooth="yes"/>
      <point x="160" y="692"/>
      <point x="42" y="581"/>
      <point x="42" y="424" type="curve" smooth="yes"/>
    </contour>
  </outline>
</glyph>
<glyph name="ae" format="2">
  <advance width="804"/>
  <unicode hex="00E6"/>
  <outline>
    <contour>
      <point x="558" y="-12" type="curve" smooth="yes"/>
      <point x="658" y="-12"/>
      <point x="748" y="43"/>
      <point x="776" y="120" type="curve"/>
      <point x="604" y="192" type="line"/>
      <point x="598" y="168"/>
      <point x="578" y="152"/>
      <point x="554" y="152" type="curve" smooth="yes"/>
      <point x="515" y="152"/>
      <point x="490" y="193"/>
      <point x="490" y="256" type="curve" smooth="yes"/>
      <point x="490" y="314"/>
      <point x="513" y="352"/>
      <point x="550" y="352" type="curve" smooth="yes"/>
      <point x="579" y="352"/>
      <point x="598" y="328"/>
      <point x="602" y="288" type="curve"/>
      <point x="470" y="288" type="line"/>
      <point x="470" y="220" type="line"/>
      <point x="782" y="220" type="line"/>
      <point x="798" y="388"/>
      <point x="700" y="512"/>
      <point x="552" y="512" type="curve" smooth="yes"/>
      <point x="474" y="512"/>
      <point x="410" y="480"/>
      <point x="370" y="420" type="curve"/>
      <point x="370" y="84" type="line"/>
      <point x="410" y="24"/>
      <point x="477" y="-12"/>
    </contour>
    <contour>
      <point x="204" y="-12" type="curve" smooth="yes"/>
      <point x="310" y="-12"/>
      <point x="398" y="51"/>
      <point x="416" y="140" type="curve"/>
      <point x="292" y="204" type="line"/>
      <point x="292" y="167"/>
      <point x="275" y="144"/>
      <point x="248" y="144" type="curve" smooth="yes"/>
      <point x="229" y="144"/>
      <point x="216" y="157"/>
      <point x="216" y="178" type="curve" smooth="yes"/>
      <point x="216" y="199"/>
      <point x="232" y="213"/>
      <point x="256" y="216" type="curve" smooth="yes"/>
      <point x="292" y="220" type="line"/>
      <point x="292" y="314" type="line"/>
      <point x="292" y="304"/>
      <point x="286" y="296"/>
      <point x="276" y="294" type="curve" smooth="yes"/>
      <point x="140" y="272" type="line" smooth="yes"/>
      <point x="67" y="260"/>
      <point x="20" y="207"/>
      <point x="20" y="136" type="curve" smooth="yes"/>
      <point x="20" y="49"/>
      <point x="96" y="-12"/>
    </contour>
    <contour>
      <point x="292" y="100" type="line"/>
      <point x="490" y="100" type="line"/>
      <point x="490" y="308" type="line" smooth="yes"/>
      <point x="490" y="428"/>
      <point x="400" y="512"/>
      <point x="256" y="512" type="curve" smooth="yes"/>
      <point x="144" y="512"/>
      <point x="63" y="462"/>
      <point x="28" y="384" type="curve"/>
      <point x="216" y="316" type="line"/>
      <point x="220" y="343"/>
      <point x="236" y="360"/>
      <point x="260" y="360" type="curve" smooth="yes"/>
      <point x="281" y="360"/>
      <point x="292" y="347"/>
      <point x="292" y="328" type="curve" smooth="yes"/>
    </contour>
  </outline>
</glyph>
<glyph name="idieresis" format="2">
  <advance width="280"/>
  <unicode hex="00EF"/>
  <outline>
    <contour>
      <point x="244" y="548" type="curve" smooth="yes"/>
      <point x="302" y="548"/>
      <point x="336" y="580"/>
      <point x="336" y="634" type="curve" smooth="yes"/>
      <point x="336" y="689"/>
      <point x="302" y="722"/>
      <point x="244" y="722" type="curve" smooth="yes"/>
      <point x="186" y="722"/>
      <point x="152" y="689"/>
      <point x="152" y="634" type="curve" smooth="yes"/>
      <point x="152" y="580"/>
      <point x="186" y="548"/>
    </contour>
    <contour>
      <point x="36" y="548" type="curve" smooth="yes"/>
      <point x="94" y="548"/>
      <point x="128" y="580"/>
      <point x="128" y="634" type="curve" smooth="yes"/>
      <point x="128" y="689"/>
      <point x="94" y="722"/>
      <point x="36" y="722" type="curve" smooth="yes"/>
      <point x="-22" y="722"/>
      <point x="-56" y="689"/>
      <point x="-56" y="634" type="curve" smooth="yes"/>
      <point x="-56" y="580"/>
      <point x="-22" y="548"/>
    </contour>
    <component base="idotless"/>
  </outline>
</glyph>
<glyph name="eth" format="2">
  <advance width="532"/>
  <unicode hex="00F0"/>
  <outline>
    <contour>
      <point x="250" y="-12" type="curve" smooth="yes"/>
      <point x="402" y="-12"/>
      <point x="504" y="100"/>
      <point x="504" y="272" type="curve" smooth="yes"/>
      <point x="504" y="440"/>
      <point x="409" y="620"/>
      <point x="276" y="700" type="curve"/>
      <point x="136" y="540" type="line"/>
      <point x="216" y="512"/>
      <point x="300" y="452"/>
      <point x="352" y="376" type="curve"/>
      <point x="372" y="392" type="line"/>
      <point x="348" y="420"/>
      <point x="296" y="440"/>
      <point x="236" y="440" type="curve" smooth="yes"/>
      <point x="108" y="440"/>
      <point x="16" y="347"/>
      <point x="16" y="216" type="curve" smooth="yes"/>
      <point x="16" y="83"/>
      <point x="114" y="-12"/>
    </contour>
    <contour>
      <point x="264" y="172" type="curve" smooth="yes"/>
      <point x="231" y="172"/>
      <point x="208" y="202"/>
      <point x="208" y="244" type="curve" smooth="yes"/>
      <point x="208" y="286"/>
      <point x="231" y="316"/>
      <point x="264" y="316" type="curve" smooth="yes"/>
      <point x="297" y="316"/>
      <point x="320" y="286"/>
      <point x="320" y="244" type="curve" smooth="yes"/>
      <point x="320" y="202"/>
      <point x="297" y="172"/>
    </contour>
    <contour>
      <point x="376" y="504" type="line"/>
      <point x="504" y="620" type="line"/>
      <point x="396" y="736" type="line"/>
      <point x="276" y="612" type="line"/>
    </contour>
  </outline>
</glyph>
<glyph name="divide" format="2">
  <advance width="600"/>
  <unicode hex="00F7"/>
  <outline>
    <contour>
      <point x="80" y="254" type="line"/>
      <point x="520" y="254" type="line"/>
      <point x="520" y="386" type="line"/>
      <point x="80" y="386" type="line"/>
    </contour>
    <component base="period" xOffset="164" yOffset="36"/>
    <component base="period" xOffset="164" yOffset="420"/>
  </outline>
</glyph>
<glyph name="oslash" format="2">
  <advance width="556"/>
  <unicode hex="00F8"/>
  <outline>
    <contour>
      <point x="116" y="-62" type="line"/>
      <point x="237" y="86" type="line"/>
      <point x="121" y="180" type="line"/>
      <point x="0" y="32" type="line"/>
    </contour>
    <contour>
      <point x="452" y="344" type="line"/>
      <point x="556" y="472" type="line"/>
      <point x="440" y="566" type="line"/>
      <point x="336" y="438" type="line"/>
    </contour>
    <component base="o" xOffset="4"/>
  </outline>
</glyph>
<glyph name="thorn" format="2">
  <advance width="590"/>
  <unicode hex="00FE"/>
  <outline>
    <contour>
      <point x="360" y="-12" type="curve" smooth="yes"/>
      <point x="483" y="-12"/>
      <point x="570" y="97"/>
      <point x="570" y="252" type="curve" smooth="yes"/>
      <point x="570" y="404"/>
      <point x="483" y="512"/>
      <point x="360" y="512" type="curve" smooth="yes"/>
      <point x="237" y="512"/>
      <point x="150" y="403"/>
      <point x="150" y="248" type="curve" smooth="yes"/>
      <point x="150" y="96"/>
      <point x="237" y="-12"/>
    </contour>
    <contour>
      <point x="42" y="-200" type="line"/>
      <point x="242" y="-200" type="line"/>
      <point x="242" y="68" type="line"/>
      <point x="222" y="251" type="line"/>
      <point x="242" y="403" type="line"/>
      <point x="242" y="680" type="line"/>
      <point x="42" y="680" type="line"/>
    </contour>
    <contour>
      <point x="306" y="166" type="curve" smooth="yes"/>
      <point x="261" y="166"/>
      <point x="232" y="199"/>
      <point x="232" y="251" type="curve" smooth="yes"/>
      <point x="232" y="303"/>
      <point x="261" y="336"/>
      <point x="306" y="336" type="curve" smooth="yes"/>
      <point x="351" y="336"/>
      <point x="380" y="303"/>
      <point x="380" y="251" type="curve" smooth="yes"/>
      <point x="380" y="199"/>
      <point x="351" y="166"/>
    </contour>
  </outline>
</glyph>
<glyph name="dcroat" format="2">
  <advance width="602"/>
  <unicode hex="0111"/>
  <outline>
    <contour>
      <point x="162" y="536" type="line"/>
      <point x="598" y="536" type="line"/>
      <point x="598" y="636" type="line"/>
      <point x="162" y="636" type="line"/>
    </contour>
    <component base="d"/>
  </outline>
</glyph>
<glyph name="eogonek" format="2">
  <advance width="544"/>
  <unicode hex="0119"/>
  <outline>
    <contour>
      <point x="368" y="-212" type="curve" smooth="yes"/>
      <point x="392" y="-212"/>
      <point x="422" y="-209"/>
      <point x="444" y="-204" type="curve"/>
      <point x="426" y="-103" type="line"/>
      <point x="420" y="-104"/>
      <point x="416" y="-104"/>
      <point x="414" y="-104" type="curve" smooth="yes"/>
      <point x="395" y="-104"/>
      <point x="380" y="-91"/>
      <point x="380" y="-68" type="curve" smooth="yes"/>
      <point x="380" y="-42"/>
      <point x="400" y="-6"/>
      <point x="464" y="50" type="curve"/>
      <point x="324" y="0" type="line"/>
      <point x="261" y="-26"/>
      <point x="220" y="-73"/>
      <point x="220" y="-120" type="curve" smooth="yes"/>
      <point x="220" y="-176"/>
      <point x="278" y="-212"/>
    </contour>
    <component base="e"/>
  </outline>
</glyph>
<glyph name="Hbar" format="2">
  <advance width="696"/>
  <unicode hex="0126"/>
  <outline>
    <contour>
      <point x="0" y="497" type="line"/>
      <point x="696" y="497" type="line"/>
      <point x="696" y="599" type="line"/>
      <point x="0" y="599" type="line"/>
    </contour>
    <component base="H" xOffset="10"/>
  </outline>
</glyph>
<glyph name="hbar" format="2">
  <advance width="588"/>
  <unicode hex="0127"/>
  <outline>
    <contour>
      <point x="4" y="548" type="line"/>
      <point x="448" y="548" type="line"/>
      <point x="448" y="648" type="line"/>
      <point x="4" y="648" type="line"/>
    </contour>
    <component base="h" xOffset="10"/>
  </outline>
</glyph>
<glyph name="Lslash" format="2">
  <advance width="524"/>
  <unicode hex="0141"/>
  <outline>
    <contour>
      <point x="0" y="264" type="line"/>
      <point x="396" y="368" type="line"/>
      <point x="396" y="492" type="line"/>
      <point x="0" y="388" type="line"/>
    </contour>
    <component base="L" xOffset="4"/>
  </outline>
</glyph>
<glyph name="lslash" format="2">
  <advance width="334"/>
  <unicode hex="0142"/>
  <outline>
    <contour>
      <point x="0" y="254" type="line"/>
      <point x="334" y="342" type="line"/>
      <point x="334" y="468" type="line"/>
      <point x="0" y="378" type="line"/>
    </contour>
    <component base="l" xOffset="26"/>
  </outline>
</glyph>
<glyph name="OE" format="2">
  <advance width="940"/>
  <unicode hex="0152"/>
  <outline>
    <contour>
      <point x="322" y="-12" type="curve" smooth="yes"/>
      <point x="370" y="-12"/>
      <point x="410" y="-2"/>
      <point x="442" y="16" type="curve"/>
      <point x="442" y="634" type="line"/>
      <point x="410" y="652"/>
      <point x="370" y="662"/>
      <point x="322" y="662" type="curve" smooth="yes"/>
      <point x="145" y="662"/>
      <point x="20" y="522"/>
      <point x="20" y="325" type="curve" smooth="yes"/>
      <point x="20" y="128"/>
      <point x="145" y="-12"/>
    </contour>
    <contour>
      <point x="342" y="182" type="curve" smooth="yes"/>
      <point x="281" y="182"/>
      <point x="242" y="238"/>
      <point x="242" y="326" type="curve" smooth="yes"/>
      <point x="242" y="414"/>
      <point x="281" y="470"/>
      <point x="342" y="470" type="curve" smooth="yes"/>
      <point x="403" y="470"/>
      <point x="442" y="414"/>
      <point x="442" y="326" type="curve" smooth="yes"/>
      <point x="442" y="238"/>
      <point x="403" y="182"/>
    </contour>
    <contour>
      <point x="442" y="0" type="line"/>
      <point x="650" y="0" type="line"/>
      <point x="650" y="650" type="line"/>
      <point x="442" y="650" type="line"/>
    </contour>
    <contour>
      <point x="630" y="0" type="line"/>
      <point x="916" y="0" type="line"/>
      <point x="916" y="168" type="line"/>
      <point x="630" y="168" type="line"/>
    </contour>
    <contour>
      <point x="630" y="277" type="line"/>
      <point x="840" y="277" type="line"/>
      <point x="840" y="387" type="line"/>
      <point x="630" y="387" type="line"/>
    </contour>
    <contour>
      <point x="630" y="484" type="line"/>
      <point x="904" y="484" type="line"/>
      <point x="904" y="650" type="line"/>
      <point x="630" y="650" type="line"/>
    </contour>
  </outline>
</glyph>
<glyph name="oe" format="2">
  <advance width="814"/>
  <unicode hex="0153"/>
  <outline>
    <contour>
      <point x="260" y="-12" type="curve" smooth="yes"/>
      <point x="401" y="-12"/>
      <point x="500" y="97"/>
      <point x="500" y="250" type="curve" smooth="yes"/>
      <point x="500" y="403"/>
      <point x="401" y="512"/>
      <point x="260" y="512" type="curve" smooth="yes"/>
      <point x="119" y="512"/>
      <point x="20" y="403"/>
      <point x="20" y="250" type="curve" smooth="yes"/>
      <point x="20" y="97"/>
      <point x="119" y="-12"/>
    </contour>
    <contour>
      <point x="260" y="170" type="curve" smooth="yes"/>
      <point x="226" y="170"/>
      <point x="204" y="202"/>
      <point x="204" y="251" type="curve" smooth="yes"/>
      <point x="204" y="300"/>
      <point x="226" y="332"/>
      <point x="260" y="332" type="curve" smooth="yes"/>
      <point x="294" y="332"/>
      <point x="316" y="300"/>
      <point x="316" y="251" type="curve" smooth="yes"/>
      <point x="316" y="202"/>
      <point x="294" y="170"/>
    </contour>
    <contour>
      <point x="568" y="-12" type="curve" smooth="yes"/>
      <point x="668" y="-12"/>
      <point x="758" y="43"/>
      <point x="786" y="120" type="curve"/>
      <point x="614" y="192" type="line"/>
      <point x="608" y="168"/>
      <point x="588" y="152"/>
      <point x="564" y="152" type="curve" smooth="yes"/>
      <point x="525" y="152"/>
      <point x="500" y="193"/>
      <point x="500" y="256" type="curve" smooth="yes"/>
      <point x="500" y="314"/>
      <point x="523" y="352"/>
      <point x="560" y="352" type="curve" smooth="yes"/>
      <point x="589" y="352"/>
      <point x="608" y="328"/>
      <point x="612" y="288" type="curve"/>
      <point x="480" y="288" type="line"/>
      <point x="480" y="220" type="line"/>
      <point x="792" y="220" type="line"/>
      <point x="808" y="388"/>
      <point x="710" y="512"/>
      <point x="562" y="512" type="curve" smooth="yes"/>
      <point x="484" y="512"/>
      <point x="420" y="480"/>
      <point x="380" y="420" type="curve"/>
      <point x="380" y="84" type="line"/>
      <point x="420" y="24"/>
      <point x="487" y="-12"/>
    </contour>
  </outline>
</glyph>
<glyph name="Uogonek" format="2">
  <advance width="640"/>
  <unicode hex="0172"/>
  <outline>
    <contour>
      <point x="430" y="-212" type="curve" smooth="yes"/>
      <point x="454" y="-212"/>
      <point x="484" y="-209"/>
      <point x="506" y="-204" type="curve"/>
      <point x="488" y="-103" type="line"/>
      <point x="482" y="-104"/>
      <point x="478" y="-104"/>
      <point x="476" y="-104" type="curve" smooth="yes"/>
      <point x="455" y="-104"/>
      <point x="442" y="-91"/>
      <point x="442" y="-68" type="curve" smooth="yes"/>
      <point x="442" y="-40"/>
      <point x="460" y="0"/>
      <point x="524" y="56" type="curve"/>
      <point x="386" y="0" type="line"/>
      <point x="323" y="-26"/>
      <point x="282" y="-73"/>
      <point x="282" y="-120" type="curve" smooth="yes"/>
      <point x="282" y="-176"/>
      <point x="340" y="-212"/>
    </contour>
    <component base="U"/>
  </outline>
</glyph>
<glyph name="Schwa" format="2">
  <advance width="670"/>
  <unicode hex="018F"/>
  <outline>
    <contour>
      <point x="332" y="-12" type="curve" smooth="yes"/>
      <point x="517" y="-12"/>
      <point x="650" y="129"/>
      <point x="650" y="325" type="curve" smooth="yes"/>
      <point x="650" y="521"/>
      <point x="514" y="662"/>
      <point x="324" y="662" type="curve" smooth="yes"/>
      <point x="188" y="662"/>
      <point x="72" y="591"/>
      <point x="36" y="487" type="curve"/>
      <point x="248" y="408" type="line"/>
      <point x="256" y="448"/>
      <point x="292" y="476"/>
      <point x="332" y="476" type="curve" smooth="yes"/>
      <point x="392" y="476"/>
      <point x="430" y="416"/>
      <point x="430" y="320" type="curve" smooth="yes"/>
      <point x="430" y="232"/>
      <point x="396" y="176"/>
      <point x="336" y="176" type="curve" smooth="yes"/>
      <point x="284" y="176"/>
      <point x="246" y="220"/>
      <point x="244" y="284" type="curve"/>
      <point x="449" y="284" type="line"/>
      <point x="449" y="368" type="line"/>
      <point x="23" y="367" type="line"/>
      <point x="-1" y="146"/>
      <point x="128" y="-12"/>
    </contour>
  </outline>
</glyph>
<glyph name="florin" format="2">
  <advance width="480"/>
  <unicode hex="0192"/>
  <outline>
    <contour>
      <point x="44" y="-200" type="line"/>
      <point x="244" y="-200" type="line"/>
      <point x="312" y="448" type="line" smooth="yes"/>
      <point x="318" y="508"/>
      <point x="380" y="528"/>
      <point x="428" y="504" type="curve"/>
      <point x="488" y="668" type="line"/>
      <point x="308" y="732"/>
      <point x="136" y="660"/>
      <point x="116" y="472" type="curve" smooth="yes"/>
    </contour>
    <contour>
      <point x="8" y="205" type="line"/>
      <point x="420" y="205" type="line"/>
      <point x="420" y="365" type="line"/>
      <point x="8" y="365" type="line"/>
    </contour>
  </outline>
</glyph>
<glyph name="jdotless" format="2">
  <advance width="296"/>
  <unicode hex="0237"/>
  <anchor x="156" y="500" name="top"/>
  <outline>
    <contour>
      <point x="66" y="-232" type="line"/>
      <point x="178" y="-218"/>
      <point x="256" y="-140"/>
      <point x="256" y="-44" type="curve" smooth="yes"/>
      <point x="256" y="500" type="line"/>
      <point x="56" y="500" type="line"/>
      <point x="56" y="32" type="line" smooth="yes"/>
      <point x="56" y="-15"/>
      <point x="26" y="-48"/>
      <point x="-20" y="-52" type="curve"/>
    </contour>
  </outline>
</glyph>
<glyph name="schwa" format="2">
  <advance width="540"/>
  <unicode hex="0259"/>
  <outline>
    <contour>
      <point x="268" y="-12" type="curve" smooth="yes"/>
      <point x="418" y="-12"/>
      <point x="520" y="95"/>
      <point x="520" y="248" type="curve" smooth="yes"/>
      <point x="520" y="401"/>
      <point x="416" y="512"/>
      <point x="264" y="512" type="curve" smooth="yes"/>
      <point x="156" y="512"/>
      <point x="67" y="455"/>
      <point x="36" y="380" type="curve"/>
      <point x="202" y="312" type="line"/>
      <point x="209" y="336"/>
      <point x="233" y="352"/>
      <point x="262" y="352" type="curve" smooth="yes"/>
      <point x="308" y="352"/>
      <point x="338" y="311"/>
      <point x="338" y="248" type="curve" smooth="yes"/>
      <point x="338" y="190"/>
      <point x="312" y="152"/>
      <point x="272" y="152" type="curve" smooth="yes"/>
      <point x="240" y="152"/>
      <point x="212" y="176"/>
      <point x="210" y="214" type="curve"/>
      <point x="358" y="214" type="line"/>
      <point x="358" y="282" type="line"/>
      <point x="22" y="282" type="line"/>
      <point x="5" y="111"/>
      <point x="108" y="-12"/>
    </contour>
  </outline>
</glyph>
<glyph name="gravecomb" format="2">
  <advance width="600"/>
  <unicode hex="0300"/>
  <anchor x="300" y="500" name="_top"/>
  <outline>
    <contour>
      <point x="228" y="540" type="line"/>
      <point x="400" y="560" type="line"/>
      <point x="344" y="728" type="line"/>
      <point x="96" y="708" type="line"/>
    </contour>
  </outline>
</glyph>
<glyph name="acutecomb" format="2">
  <advance width="600"/>
  <unicode hex="0301"/>
  <anchor x="300" y="500" name="_top"/>
  <outline>
    <contour>
      <point x="200" y="560" type="line"/>
      <point x="370" y="540" type="line"/>
      <point x="504" y="708" type="line"/>
      <point x="258" y="728" type="line"/>
    </contour>
  </outline>
</glyph>
<glyph name="circumflexcomb" format="2">
  <advance width="600"/>
  <unicode hex="0302"/>
  <anchor x="300" y="500" name="_top"/>
  <outline>
    <contour>
      <point x="82" y="548" type="line"/>
      <point x="274" y="540" type="line"/>
      <point x="302" y="632" type="line"/>
      <point x="330" y="540" type="line"/>
      <point x="518" y="548" type="line"/>
      <point x="392" y="716" type="line"/>
      <point x="208" y="716" type="line"/>
    </contour>
  </outline>
</glyph>
<glyph name="tildecomb" format="2">
  <advance width="600"/>
  <unicode hex="0303"/>
  <anchor x="300" y="500" name="_top"/>
  <outline>
    <contour>
      <point x="396" y="536" type="curve" smooth="yes"/>
      <point x="454" y="536"/>
      <point x="498" y="592"/>
      <point x="502" y="672" type="curve" smooth="yes"/>
      <point x="504" y="708" type="line"/>
      <point x="352" y="732" type="line"/>
      <point x="352" y="704"/>
      <point x="338" y="686"/>
      <point x="316" y="686" type="curve" smooth="yes"/>
      <point x="276" y="686"/>
      <point x="264" y="744"/>
      <point x="204" y="744" type="curve" smooth="yes"/>
      <point x="146" y="744"/>
      <point x="102" y="688"/>
      <point x="98" y="608" type="curve" smooth="yes"/>
      <point x="96" y="572" type="line"/>
      <point x="248" y="548" type="line"/>
      <point x="248" y="576"/>
      <point x="262" y="594"/>
      <point x="284" y="594" type="curve" smooth="yes"/>
      <point x="324" y="594"/>
      <point x="336" y="536"/>
    </contour>
  </outline>
</glyph>
<glyph name="macroncomb" format="2">
  <advance width="600"/>
  <unicode hex="0304"/>
  <anchor x="300" y="500" name="_top"/>
  <outline>
    <contour>
      <point x="126" y="564" type="line"/>
      <point x="474" y="564" type="line"/>
      <point x="474" y="708" type="line"/>
      <point x="126" y="708" type="line"/>
    </contour>
  </outline>
</glyph>
<glyph name="brevecomb" format="2">
  <advance width="600"/>
  <unicode hex="0306"/>
  <anchor x="300" y="500" name="_top"/>
  <outline>
    <contour>
      <point x="300" y="536" type="curve" smooth="yes"/>
      <point x="416" y="536"/>
      <point x="490" y="600"/>
      <point x="490" y="700" type="curve" smooth="yes"/>
      <point x="490" y="732" type="line"/>
      <point x="320" y="716" type="line"/>
      <point x="321" y="708"/>
      <point x="322" y="694"/>
      <point x="322" y="682" type="curve" smooth="yes"/>
      <point x="322" y="648"/>
      <point x="314" y="628"/>
      <point x="300" y="628" type="curve" smooth="yes"/>
      <point x="286" y="628"/>
      <point x="278" y="648"/>
      <point x="278" y="682" type="curve" smooth="yes"/>
      <point x="278" y="694"/>
      <point x="279" y="708"/>
      <point x="280" y="716" type="curve"/>
      <point x="110" y="732" type="line"/>
      <point x="110" y="700" type="line" smooth="yes"/>
      <point x="110" y="600"/>
      <point x="184" y="536"/>
    </contour>
  </outline>
</glyph>
<glyph name="dotaccentcomb" format="2">
  <advance width="600"/>
  <unicode hex="0307"/>
  <anchor x="300" y="500" name="_top"/>
  <outline>
    <contour>
      <point x="300" y="540" type="curve" smooth="yes"/>
      <point x="361" y="540"/>
      <point x="402" y="579"/>
      <point x="402" y="636" type="curve" smooth="yes"/>
      <point x="402" y="693"/>
      <point x="361" y="732"/>
      <point x="300" y="732" type="curve" smooth="yes"/>
      <point x="239" y="732"/>
      <point x="198" y="693"/>
      <point x="198" y="636" type="curve" smooth="yes"/>
      <point x="198" y="579"/>
      <point x="239" y="540"/>
    </contour>
  </outline>
</glyph>
<glyph name="dieresiscomb" format="2">
  <advance width="600"/>
  <unicode hex="0308"/>
  <anchor x="300" y="500" name="_top"/>
  <outline>
    <contour>
      <point x="408" y="544" type="curve" smooth="yes"/>
      <point x="465" y="544"/>
      <point x="502" y="579"/>
      <point x="502" y="634" type="curve" smooth="yes"/>
      <point x="502" y="689"/>
      <point x="465" y="724"/>
      <point x="408" y="724" type="curve" smooth="yes"/>
      <point x="351" y="724"/>
      <point x="314" y="689"/>
      <point x="314" y="634" type="curve" smooth="yes"/>
      <point x="314" y="579"/>
      <point x="351" y="544"/>
    </contour>
    <contour>
      <point x="192" y="544" type="curve" smooth="yes"/>
      <point x="249" y="544"/>
      <point x="286" y="579"/>
      <point x="286" y="634" type="curve" smooth="yes"/>
      <point x="286" y="689"/>
      <point x="249" y="724"/>
      <point x="192" y="724" type="curve" smooth="yes"/>
      <point x="135" y="724"/>
      <point x="98" y="689"/>
      <point x="98" y="634" type="curve" smooth="yes"/>
      <point x="98" y="579"/>
      <point x="135" y="544"/>
    </contour>
  </outline>
</glyph>
<glyph name="ringcomb" format="2">
  <advance width="600"/>
  <unicode hex="030A"/>
  <anchor x="300" y="500" name="_top"/>
  <outline>
    <contour>
      <point x="300" y="536" type="curve" smooth="yes"/>
      <point x="396" y="536"/>
      <point x="456" y="585"/>
      <point x="456" y="663" type="curve" smooth="yes"/>
      <point x="456" y="741"/>
      <point x="396" y="790"/>
      <point x="300" y="790" type="curve" smooth="yes"/>
      <point x="204" y="790"/>
      <point x="144" y="741"/>
      <point x="144" y="663" type="curve" smooth="yes"/>
      <point x="144" y="585"/>
      <point x="204" y="536"/>
    </contour>
    <contour>
      <point x="300" y="634" type="curve" smooth="yes"/>
      <point x="280" y="634"/>
      <point x="268" y="645"/>
      <point x="268" y="662" type="curve" smooth="yes"/>
      <point x="268" y="679"/>
      <point x="280" y="690"/>
      <point x="300" y="690" type="curve" smooth="yes"/>
      <point x="320" y="690"/>
      <point x="332" y="679"/>
      <point x="332" y="662" type="curve" smooth="yes"/>
      <point x="332" y="645"/>
      <point x="320" y="634"/>
    </contour>
  </outline>
</glyph>
<glyph name="hungarumlautcomb" format="2">
  <advance width="600"/>
  <unicode hex="030B"/>
  <anchor x="300" y="500" name="_top"/>
  <outline>
    <contour>
      <point x="316" y="556" type="line"/>
      <point x="480" y="540" type="line"/>
      <point x="616" y="716" type="line"/>
      <point x="396" y="732" type="line"/>
    </contour>
    <contour>
      <point x="104" y="560" type="line"/>
      <point x="260" y="544" type="line"/>
      <point x="372" y="716" type="line"/>
      <point x="160" y="728" type="line"/>
    </contour>
  </outline>
</glyph>
<glyph name="caroncomb" format="2">
  <advance width="600"/>
  <unicode hex="030C"/>
  <anchor x="300" y="500" name="_top"/>
  <outline>
    <contour>
      <point x="200" y="548" type="line"/>
      <point x="400" y="548" type="line"/>
      <point x="520" y="716" type="line"/>
      <point x="323" y="724" type="line"/>
      <point x="301" y="632" type="line"/>
      <point x="279" y="724" type="line"/>
      <point x="80" y="716" type="line"/>
    </contour>
  </outline>
</glyph>
<glyph name="commaaccentcomb" format="2">
  <advance width="600"/>
  <unicode hex="0326"/>
  <anchor x="300" y="0" name="_bottom"/>
  <outline>
    <contour>
      <point x="314" y="-293"/>
      <point x="396" y="-232"/>
      <point x="396" y="-132" type="curve" smooth="yes"/>
      <point x="396" y="-66"/>
      <point x="357" y="-20"/>
      <point x="300" y="-20" type="curve" smooth="yes"/>
      <point x="252" y="-20"/>
      <point x="218" y="-53"/>
      <point x="218" y="-100" type="curve" smooth="yes"/>
      <point x="218" y="-144"/>
      <point x="248" y="-178"/>
      <point x="298" y="-180" type="curve"/>
      <point x="285" y="-199"/>
      <point x="254" y="-207"/>
      <point x="218" y="-198" type="curve"/>
      <point x="214" y="-273" type="line"/>
    </contour>
  </outline>
</glyph>
<glyph name="cedillacomb" format="2">
  <advance width="600"/>
  <unicode hex="0327"/>
  <anchor x="300" y="0" name="_bottom"/>
  <outline>
    <contour>
      <point x="332" y="-296"/>
      <point x="444" y="-260"/>
      <point x="444" y="-160" type="curve" smooth="yes"/>
      <point x="444" y="-88"/>
      <point x="392" y="-40"/>
      <point x="320" y="-32" type="curve"/>
      <point x="330" y="28" type="line"/>
      <point x="248" y="28" type="line"/>
      <point x="232" y="-106" type="line"/>
      <point x="252" y="-108" type="line" smooth="yes"/>
      <point x="268" y="-110"/>
      <point x="280" y="-120"/>
      <point x="280" y="-134" type="curve" smooth="yes"/>
      <point x="280" y="-154"/>
      <point x="254" y="-162"/>
      <point x="210" y="-156" type="curve"/>
      <point x="200" y="-276" type="line"/>
    </contour>
  </outline>
</glyph>
<glyph name="ogonekcomb" format="2">
  <advance width="600"/>
  <unicode hex="0328"/>
  <anchor x="364" y="0" name="_ogonek"/>
  <outline>
    <contour>
      <point x="308" y="-212" type="curve" smooth="yes"/>
      <point x="332" y="-212"/>
      <point x="358" y="-209"/>
      <point x="380" y="-204" type="curve"/>
      <point x="362" y="-103" type="line"/>
      <point x="356" y="-104"/>
      <point x="352" y="-104"/>
      <point x="350" y="-104" type="curve" smooth="yes"/>
      <point x="331" y="-104"/>
      <point x="320" y="-92"/>
      <point x="320" y="-72" type="curve" smooth="yes"/>
      <point x="320" y="-47"/>
      <point x="336" y="-21"/>
      <point x="364" y="0" type="curve"/>
      <point x="264" y="0" type="line"/>
      <point x="201" y="-26"/>
      <point x="160" y="-73"/>
      <point x="160" y="-120" type="curve" smooth="yes"/>
      <point x="160" y="-176"/>
      <point x="218" y="-212"/>
    </contour>
  </outline>
</glyph>
<glyph name="Ze-cy" format="2">
  <advance width="592"/>
  <unicode hex="0417"/>
  <outline>
    <contour>
      <point x="305" y="-12" type="curve" smooth="yes"/>
      <point x="463" y="-12"/>
      <point x="578" y="70"/>
      <point x="578" y="184" type="curve" smooth="yes"/>
      <point x="578" y="272"/>
      <point x="508" y="340"/>
      <point x="396" y="348" type="curve"/>
      <point x="396" y="340" type="line"/>
      <point x="500" y="348"/>
      <point x="560" y="412"/>
      <point x="560" y="488" type="curve" smooth="yes"/>
      <point x="560" y="588"/>
      <point x="458" y="662"/>
      <point x="320" y="662" type="curve" smooth="yes"/>
      <point x="172" y="662"/>
      <point x="56" y="580"/>
      <point x="44" y="476" type="curve"/>
      <point x="243" y="430" type="line"/>
      <point x="245" y="470"/>
      <point x="270" y="494"/>
      <point x="307" y="494" type="curve" smooth="yes"/>
      <point x="342" y="494"/>
      <point x="364" y="473"/>
      <point x="364" y="440" type="curve" smooth="yes"/>
      <point x="364" y="406"/>
      <point x="340" y="384"/>
      <point x="300" y="384" type="curve" smooth="yes"/>
      <point x="276" y="384" type="line"/>
      <point x="276" y="288" type="line"/>
      <point x="298" y="288" type="line" smooth="yes"/>
      <point x="342" y="288"/>
      <point x="370" y="262"/>
      <point x="370" y="222" type="curve" smooth="yes"/>
      <point x="370" y="184"/>
      <point x="346" y="160"/>
      <point x="308" y="160" type="curve" smooth="yes"/>
      <point x="266" y="160"/>
      <point x="238" y="190"/>
      <point x="236" y="236" type="curve"/>
      <point x="24" y="196" type="line"/>
      <point x="28" y="75"/>
      <point x="145" y="-12"/>
    </contour>
  </outline>
</glyph>
<glyph name="ze-cy" format="2">
  <advance width="528"/>
  <unicode hex="0437"/>
  <outline>
    <contour>
      <point x="280" y="-12" type="curve" smooth="yes"/>
      <point x="413" y="-12"/>
      <point x="508" y="51"/>
      <point x="508" y="140" type="curve" smooth="yes"/>
      <point x="508" y="207"/>
      <point x="455" y="258"/>
      <point x="380" y="262" type="curve"/>
      <point x="380" y="250" type="line"/>
      <point x="442" y="259"/>
      <point x="486" y="307"/>
      <point x="486" y="364" type="curve" smooth="yes"/>
      <point x="486" y="450"/>
      <point x="397" y="512"/>
      <point x="272" y="512" type="curve" smooth="yes"/>
      <point x="157" y="512"/>
      <point x="61" y="454"/>
      <point x="32" y="372" type="curve"/>
      <point x="208" y="304" type="line"/>
      <point x="214" y="334"/>
      <point x="241" y="352"/>
      <point x="276" y="352" type="curve" smooth="yes"/>
      <point x="309" y="352"/>
      <point x="330" y="339"/>
      <point x="330" y="320" type="curve" smooth="yes"/>
      <point x="330" y="301"/>
      <point x="309" y="288"/>
      <point x="276" y="288" type="curve" smooth="yes"/>
      <point x="233" y="288" type="line"/>
      <point x="233" y="222" type="line"/>
      <point x="288" y="222" type="line" smooth="yes"/>
      <point x="319" y="222"/>
      <point x="340" y="209"/>
      <point x="340" y="190" type="curve" smooth="yes"/>
      <point x="340" y="169"/>
      <point x="318" y="156"/>
      <point x="284" y="156" type="curve" smooth="yes"/>
      <point x="240" y="156"/>
      <point x="209" y="180"/>
      <point x="204" y="216" type="curve"/>
      <point x="16" y="156" type="line"/>
      <point x="36" y="58"/>
      <point x="146" y="-12"/>
    </contour>
  </outline>
</glyph>
<glyph name="Germandbls" format="2">
  <advance width="752"/>
  <unicode hex="1E9E"/>
  <outline>
    <contour>
      <point x="512" y="-12" type="curve" smooth="yes"/>
      <point x="650" y="-12"/>
      <point x="748" y="61"/>
      <point x="748" y="164" type="curve" smooth="yes"/>
      <point x="748" y="332"/>
      <point x="492" y="332"/>
      <point x="492" y="412" type="curve" smooth="yes"/>
      <point x="492" y="452"/>
      <point x="556" y="476"/>
      <point x="628" y="440" type="curve"/>
      <point x="672" y="620" type="line"/>
      <point x="614" y="644"/>
      <point x="517" y="662"/>
      <point x="424" y="662" type="curve" smooth="yes"/>
      <point x="200" y="662"/>
      <point x="40" y="561"/>
      <point x="40" y="420" type="curve" smooth="yes"/>
      <point x="40" y="0" type="line"/>
      <point x="252" y="0" type="line"/>
      <point x="252" y="396" type="line" smooth="yes"/>
      <point x="252" y="481"/>
      <point x="321" y="536"/>
      <point x="428" y="536" type="curve"/>
      <point x="370" y="521"/>
      <point x="332" y="474"/>
      <point x="332" y="416" type="curve" smooth="yes"/>
      <point x="332" y="284"/>
      <point x="536" y="252"/>
      <point x="536" y="180" type="curve" smooth="yes"/>
      <point x="536" y="161"/>
      <point x="523" y="148"/>
      <point x="504" y="148" type="curve" smooth="yes"/>
      <point x="480" y="148"/>
      <point x="465" y="169"/>
      <point x="465" y="200" type="curve"/>
      <point x="268" y="172" type="line"/>
      <point x="272" y="58"/>
      <point x="371" y="-12"/>
    </contour>
  </outline>
</glyph>
<glyph name="endash" format="2">
  <advance width="548"/>
  <unicode hex="2013"/>
  <outline>
    <contour>
      <point x="16" y="184" type="line"/>
      <point x="532" y="184" type="line"/>
      <point x="532" y="328" type="line"/>
      <point x="16" y="328" type="line"/>
    </contour>
  </outline>
</glyph>
<glyph name="emdash" format="2">
  <advance width="860"/>
  <unicode hex="2014"/>
  <outline>
    <contour>
      <point x="8" y="184" type="line"/>
      <point x="852" y="184" type="line"/>
      <point x="852" y="328" type="line"/>
      <point x="8" y="328" type="line"/>
    </contour>
  </outline>
</glyph>
<glyph name="dagger" format="2">
  <advance width="446"/>
  <unicode hex="2020"/>
  <outline>
    <contour>
      <point x="121" y="0" type="line"/>
      <point x="325" y="0" type="line"/>
      <point x="325" y="650" type="line"/>
      <point x="121" y="650" type="line"/>
    </contour>
    <contour>
      <point x="48" y="339" type="line"/>
      <point x="398" y="339" type="line"/>
      <point x="398" y="519" type="line"/>
      <point x="48" y="519" type="line"/>
    </contour>
  </outline>
</glyph>
<glyph name="daggerdbl" format="2">
  <advance width="446"/>
  <unicode hex="2021"/>
  <outline>
    <contour>
      <point x="121" y="0" type="line"/>
      <point x="325" y="0" type="line"/>
      <point x="325" y="650" type="line"/>
      <point x="121" y="650" type="line"/>
    </contour>
    <contour>
      <point x="48" y="142" type="line"/>
      <point x="398" y="142" type="line"/>
      <point x="398" y="309" type="line"/>
      <point x="48" y="309" type="line"/>
    </contour>
    <contour>
      <point x="48" y="358" type="line"/>
      <point x="398" y="358" type="line"/>
      <point x="398" y="524" type="line"/>
      <point x="48" y="524" type="line"/>
    </contour>
  </outline>
</glyph>
<glyph name="bullet" format="2">
  <advance width="496"/>
  <unicode hex="2022"/>
  <outline>
    <contour>
      <point x="248" y="150" type="curve" smooth="yes"/>
      <point x="320" y="150"/>
      <point x="372" y="204"/>
      <point x="372" y="276" type="curve" smooth="yes"/>
      <point x="372" y="348"/>
      <point x="320" y="402"/>
      <point x="248" y="402" type="curve" smooth="yes"/>
      <point x="176" y="402"/>
      <point x="124" y="348"/>
      <point x="124" y="276" type="curve" smooth="yes"/>
      <point x="124" y="204"/>
      <point x="176" y="150"/>
    </contour>
  </outline>
</glyph>
<glyph name="minute" format="2">
  <advance width="284"/>
  <unicode hex="2032"/>
  <outline>
    <contour>
      <point x="16" y="414" type="line"/>
      <point x="200" y="414" type="line"/>
      <point x="268" y="650" type="line"/>
      <point x="48" y="650" type="line"/>
    </contour>
  </outline>
</glyph>
<glyph name="guilsinglleft" format="2">
  <advance width="332"/>
  <unicode hex="2039"/>
  <outline>
    <contour>
      <point x="190" y="4" type="line"/>
      <point x="300" y="160" type="line"/>
      <point x="192" y="250" type="line"/>
      <point x="298" y="344" type="line"/>
      <point x="192" y="500" type="line"/>
      <point x="4" y="251" type="line"/>
    </contour>
  </outline>
</glyph>
<glyph name="interrobang" format="2">
  <advance width="678"/>
  <unicode hex="203D"/>
  <outline>
    <contour>
      <point x="412" y="208" type="line"/>
      <point x="440" y="254"/>
      <point x="456" y="263"/>
      <point x="528" y="284" type="curve" smooth="yes"/>
      <point x="622" y="312"/>
      <point x="682" y="392"/>
      <point x="682" y="484" type="curve" smooth="yes"/>
      <point x="682" y="604"/>
      <point x="586" y="692"/>
      <point x="456" y="692" type="curve" smooth="yes"/>
      <point x="343" y="692"/>
      <point x="251" y="626"/>
      <point x="228" y="532" type="curve"/>
      <point x="408" y="456" type="line"/>
      <point x="412" y="486"/>
      <point x="430" y="506"/>
      <point x="454" y="506" type="curve" smooth="yes"/>
      <point x="477" y="506"/>
      <point x="492" y="488"/>
      <point x="492" y="460" type="curve" smooth="yes"/>
      <point x="492" y="412"/>
      <point x="445" y="388"/>
      <point x="400" y="376" type="curve" smooth="yes"/>
      <point x="356" y="364"/>
      <point x="308" y="332"/>
      <point x="288" y="256" type="curve"/>
    </contour>
    <contour>
      <point x="132" y="224" type="line"/>
      <point x="260" y="256" type="line"/>
      <point x="194" y="696" type="line"/>
      <point x="-2" y="652" type="line"/>
    </contour>
    <component base="period" xOffset="132"/>
  </outline>
</glyph>
<glyph name="fraction" format="2">
  <advance width="766"/>
  <unicode hex="2044"/>
  <outline>
    <contour>
      <point x="192" y="-28" type="line"/>
      <point x="670" y="602" type="line"/>
      <point x="576" y="678" type="line"/>
      <point x="96" y="48" type="line"/>
    </contour>
  </outline>
</glyph>
<glyph name="zerosuperior" format="2">
  <advance width="348"/>
  <unicode hex="2070"/>
  <outline>
    <contour>
      <point x="174" y="332" type="curve" smooth="yes"/>
      <point x="262" y="332"/>
      <point x="324" y="399"/>
      <point x="324" y="494" type="curve" smooth="yes"/>
      <point x="324" y="589"/>
      <point x="262" y="656"/>
      <point x="174" y="656" type="curve" smooth="yes"/>
      <point x="86" y="656"/>
      <point x="24" y="589"/>
      <point x="24" y="494" type="curve" smooth="yes"/>
      <point x="24" y="399"/>
      <point x="86" y="332"/>
    </contour>
    <contour>
      <point x="174" y="430" type="curve" smooth="yes"/>
      <point x="153" y="430"/>
      <point x="140" y="455"/>
      <point x="140" y="495" type="curve" smooth="yes"/>
      <point x="140" y="535"/>
      <point x="153" y="560"/>
      <point x="174" y="560" type="curve" smooth="yes"/>
      <point x="195" y="560"/>
      <point x="208" y="535"/>
      <point x="208" y="495" type="curve" smooth="yes"/>
      <point x="208" y="455"/>
      <point x="195" y="430"/>
    </contour>
  </outline>
</glyph>
<glyph name="foursuperior" format="2">
  <advance width="320"/>
  <unicode hex="2074"/>
  <outline>
    <contour>
      <point x="12" y="388" type="line"/>
      <point x="306" y="388" type="line"/>
      <point x="306" y="492" type="line"/>
      <point x="96" y="492" type="line"/>
      <point x="149" y="519"/>
      <point x="172" y="566"/>
      <point x="172" y="650" type="curve"/>
      <point x="52" y="650" type="line"/>
      <point x="52" y="646" type="line" smooth="yes"/>
      <point x="52" y="579"/>
      <point x="40" y="538"/>
      <point x="12" y="510" type="curve"/>
    </contour>
    <contour>
      <point x="170" y="338" type="line"/>
      <point x="278" y="338" type="line"/>
      <point x="278" y="570" type="line"/>
      <point x="170" y="558" type="line"/>
    </contour>
  </outline>
</glyph>
<glyph name="euro" format="2">
  <advance width="680"/>
  <unicode hex="20AC"/>
  <outline>
    <contour>
      <point x="0" y="244" type="line"/>
      <point x="380" y="244" type="line"/>
      <point x="416" y="402" type="line"/>
      <point x="0" y="404" type="line"/>
    </contour>
    <component base="C" xOffset="24"/>
  </outline>
</glyph>
<glyph name="trademark" format="2">
  <advance width="704"/>
  <unicode hex="2122"/>
  <outline>
    <contour>
      <point x="314" y="338" type="line"/>
      <point x="428" y="338" type="line"/>
      <point x="428" y="544" type="line"/>
      <point x="470" y="339" type="line"/>
      <point x="522" y="339" type="line"/>
      <point x="562" y="544" type="line"/>
      <point x="562" y="338" type="line"/>
      <point x="676" y="338" type="line"/>
      <point x="676" y="650" type="line"/>
      <point x="534" y="650" type="line"/>
      <point x="497" y="428" type="line"/>
      <point x="458" y="650" type="line"/>
      <point x="314" y="650" type="line"/>
    </contour>
    <contour>
      <point x="86" y="338" type="line"/>
      <point x="206" y="338" type="line"/>
      <point x="206" y="650" type="line"/>
      <point x="86" y="650" type="line"/>
    </contour>
    <contour>
      <point x="4" y="538" type="line"/>
      <point x="288" y="538" type="line"/>
      <point x="288" y="650" type="line"/>
      <point x="4" y="650" type="line"/>
    </contour>
  </outline>
</glyph>
<glyph name="upArrow" format="2">
  <advance width="688"/>
  <unicode hex="2191"/>
  <outline>
    <contour>
      <point x="446" y="0" type="line"/>
      <point x="446" y="290" type="line"/>
      <point x="548" y="188" type="line"/>
      <point x="688" y="324" type="line"/>
      <point x="344" y="666" type="line"/>
      <point x="0" y="324" type="line"/>
      <point x="140" y="188" type="line"/>
      <point x="242" y="290" type="line"/>
      <point x="242" y="0" type="line"/>
    </contour>
  </outline>
</glyph>
<glyph name="rightArrow" format="2">
  <advance width="688"/>
  <unicode hex="2192"/>
  <outline>
    <contour>
      <point x="346" y="-24" type="line"/>
      <point x="688" y="320" type="line"/>
      <point x="346" y="664" type="line"/>
      <point x="210" y="524" type="line"/>
      <point x="316" y="420" type="line"/>
      <point x="24" y="420" type="line"/>
      <point x="24" y="220" type="line"/>
      <point x="316" y="220" type="line"/>
      <point x="210" y="116" type="line"/>
    </contour>
  </outline>
</glyph>
<glyph name="northEastArrow" format="2">
  <advance width="688"/>
  <unicode hex="2197"/>
  <outline>
    <contour>
      <point x="172" y="0" type="line"/>
      <point x="422" y="246" type="line"/>
      <point x="422" y="80" type="line"/>
      <point x="612" y="80" type="line"/>
      <point x="612" y="580" type="line"/>
      <point x="116" y="580" type="line"/>
      <point x="116" y="390" type="line"/>
      <point x="288" y="390" type="line"/>
      <point x="28" y="145" type="line"/>
    </contour>
  </outline>
</glyph>
<glyph name="southEastArrow" format="2">
  <advance width="688"/>
  <unicode hex="2198"/>
  <outline>
    <contour>
      <point x="112" y="37" type="line"/>
      <point x="612" y="37" type="line"/>
      <point x="612" y="537" type="line"/>
      <point x="422" y="537" type="line"/>
      <point x="422" y="369" type="line"/>
      <point x="172" y="623" type="line"/>
      <point x="28" y="478" type="line"/>
      <point x="284" y="229" type="line"/>
      <point x="112" y="229" type="line"/>
    </contour>
  </outline>
</glyph>
<glyph name="approxequal" format="2">
  <advance width="600"/>
  <unicode hex="2248"/>
  <outline>
    <contour>
      <point x="400" y="121" type="curve" smooth="yes"/>
      <point x="470" y="121"/>
      <point x="520" y="181"/>
      <point x="520" y="267" type="curve" smooth="yes"/>
      <point x="520" y="311" type="line"/>
      <point x="356" y="311" type="line"/>
      <point x="356" y="311" type="line"/>
      <point x="356" y="287"/>
      <point x="342" y="271"/>
      <point x="320" y="271" type="curve" smooth="yes"/>
      <point x="280" y="271"/>
      <point x="264" y="319"/>
      <point x="200" y="319" type="curve" smooth="yes"/>
      <point x="130" y="319"/>
      <point x="80" y="259"/>
      <point x="80" y="173" type="curve" smooth="yes"/>
      <point x="80" y="129" type="line"/>
      <point x="244" y="129" type="line"/>
      <point x="244" y="129" type="line"/>
      <point x="244" y="153"/>
      <point x="258" y="168"/>
      <point x="280" y="168" type="curve" smooth="yes"/>
      <point x="320" y="168"/>
      <point x="336" y="121"/>
    </contour>
    <contour>
      <point x="400" y="322" type="curve" smooth="yes"/>
      <point x="470" y="322"/>
      <point x="520" y="383"/>
      <point x="520" y="469" type="curve" smooth="yes"/>
      <point x="520" y="511" type="line"/>
      <point x="356" y="511" type="line"/>
      <point x="356" y="511" type="line"/>
      <point x="356" y="487"/>
      <point x="342" y="471"/>
      <point x="320" y="471" type="curve" smooth="yes"/>
      <point x="280" y="471"/>
      <point x="264" y="519"/>
      <point x="200" y="519" type="curve" smooth="yes"/>
      <point x="130" y="519"/>
      <point x="80" y="458"/>
      <point x="80" y="372" type="curve" smooth="yes"/>
      <point x="80" y="330" type="line"/>
      <point x="244" y="330" type="line"/>
      <point x="244" y="330" type="line"/>
      <point x="244" y="354"/>
      <point x="258" y="369"/>
      <point x="280" y="369" type="curve" smooth="yes"/>
      <point x="320" y="369"/>
      <point x="336" y="322"/>
    </contour>
  </outline>
</glyph>
<glyph name="notequal" format="2">
  <advance width="600"/>
  <unicode hex="2260"/>
  <outline>
    <contour>
      <point x="196" y="60" type="line"/>
      <point x="464" y="548" type="line"/>
      <point x="404" y="580" type="line"/>
      <point x="136" y="92" type="line"/>
    </contour>
    <component base="equal"/>
  </outline>
</glyph>
<glyph name="greaterequal" format="2">
  <advance width="600"/>
  <unicode hex="2265"/>
  <outline>
    <contour>
      <point x="100" y="50" type="line"/>
      <point x="508" y="50" type="line"/>
      <point x="508" y="222" type="line"/>
      <point x="100" y="222" type="line"/>
    </contour>
    <contour>
      <point x="116" y="236" type="line"/>
      <point x="484" y="268" type="line"/>
      <point x="508" y="456" type="line"/>
      <point x="164" y="618" type="line"/>
      <point x="100" y="436" type="line"/>
      <point x="312" y="372" type="line"/>
      <point x="108" y="368" type="line"/>
    </contour>
  </outline>
</glyph>
<glyph name="caroncomb.alt" format="2">
  <advance width="600"/>
  <anchor x="300" y="500" name="_topright"/>
  <outline>
    <contour>
      <point x="300" y="528" type="line"/>
      <point x="406" y="507"/>
      <point x="476" y="574"/>
      <point x="476" y="666" type="curve" smooth="yes"/>
      <point x="476" y="735"/>
      <point x="436" y="784"/>
      <point x="380" y="784" type="curve" smooth="yes"/>
      <point x="333" y="784"/>
      <point x="300" y="751"/>
      <point x="300" y="704" type="curve" smooth="yes"/>
      <point x="300" y="656"/>
      <point x="333" y="620"/>
      <point x="380" y="616" type="curve"/>
      <point x="367" y="600"/>
      <point x="338" y="594"/>
      <point x="304" y="600" type="curve"/>
    </contour>
  </outline>
</glyph>
